<svg width="138" height="125" viewBox="0 0 138 125" fill="none" xmlns="http://www.w3.org/2000/svg">
<g filter="url(#filter0_d_60_1835)">
<path d="M106.025 105.264L110.361 100.959C110.361 100.959 95.7928 86.4945 90.7596 81.4974C85.7299 76.5037 83.6477 73.4028 86.0746 64.4492C88.5015 55.4956 91.1043 42.5785 64.7389 16.4022C38.3734 -9.77419 21.6383 12.3584 17.0412 16.919C12.4441 21.4796 -9.84481 38.1017 16.5206 64.2781C42.8861 90.4545 55.8929 87.8703 64.9147 85.4608C73.9365 83.0513 77.0563 85.1151 82.086 90.1122C87.1157 95.1059 101.688 109.573 101.688 109.573L106.025 105.264Z" fill="#D0A255"/>
<path d="M40.206 3.84125C47.0682 3.84125 55.288 7.01552 64.7424 16.4021C91.1079 42.5785 88.5051 55.4921 86.0782 64.4492C83.6513 73.4028 85.73 76.5037 90.7632 81.4973C95.7929 86.491 110.365 100.958 110.365 100.958L106.028 105.264L101.691 109.57C101.691 109.57 87.1228 95.1058 82.0896 90.1087C78.4844 86.5294 75.857 84.4516 71.3373 84.4516C69.5505 84.4516 67.4718 84.7764 64.9183 85.4573C62.2593 86.1662 59.2555 86.8925 55.6644 86.8925C47.0717 86.8925 35.1165 82.737 16.5242 64.2746C-9.84123 38.0982 12.4477 21.4796 17.0448 16.9155C19.9922 13.9926 27.9342 3.84125 40.206 3.84125ZM40.206 0C34.7331 0 29.3939 1.72507 24.3325 5.12632C20.2912 7.84313 17.2382 11.1012 15.4128 13.0463C14.9731 13.5142 14.5932 13.9193 14.3083 14.2056C14.0199 14.492 13.6154 14.8691 13.1406 15.3021C8.94802 19.1783 0.225193 27.2414 0.00360463 39.4601C-0.15819 48.4905 4.47757 57.7549 13.7843 66.9949C30.1009 83.1945 43.4067 90.7373 55.6609 90.7373C59.7127 90.7373 63.0823 89.9271 65.9207 89.1694C68.1225 88.5827 69.8917 88.2963 71.3338 88.2963C74.2883 88.2963 75.9274 89.4278 79.3497 92.8255L98.9514 112.287L101.688 115.003L104.424 112.287L108.761 107.981L113.098 103.675L115.834 100.958L113.098 98.2417L93.4961 78.7805C89.1277 74.4434 87.8403 72.7253 89.8135 65.4479C91.2064 60.3111 92.4796 54.1267 89.9085 45.7632C86.9892 36.2649 79.6521 25.7748 67.4789 13.6853C58.3305 4.60601 49.1539 0 40.206 0Z" fill="black"/>
<path d="M86.0922 46.5245C83.6758 38.9572 77.7176 29.2877 64.7424 16.4021C38.3769 -9.77078 21.6383 12.3583 17.0412 16.9189C12.4441 21.4795 -9.84481 38.1017 16.5206 64.278C29.4993 77.1637 39.2387 83.0757 46.8606 85.4747L86.0922 46.5245Z" fill="#932B32"/>
<path d="M77.4643 91.1144L63.9229 77.67L78.2311 63.4644L91.7726 76.9087L89.0361 79.622L78.2311 68.898L69.3957 77.67L80.1972 88.3975L77.4643 91.1144Z" fill="black"/>
<path d="M121.866 64.5366C128.64 64.5366 134.131 59.0849 134.131 52.3599C134.131 45.6348 128.64 40.1831 121.866 40.1831C115.093 40.1831 109.602 45.6348 109.602 52.3599C109.602 59.0849 115.093 64.5366 121.866 64.5366Z" fill="#E8E6E7"/>
<path d="M121.866 40.183C128.641 40.183 134.131 45.6341 134.131 52.3598C134.131 59.0855 128.641 64.5366 121.866 64.5366C115.092 64.5366 109.602 59.0855 109.602 52.3598C109.602 45.6341 115.092 40.183 121.866 40.183ZM121.866 36.3418C112.971 36.3418 105.733 43.5284 105.733 52.3598C105.733 61.1912 112.971 68.3778 121.866 68.3778C130.761 68.3778 138 61.1912 138 52.3598C138 43.5284 130.761 36.3418 121.866 36.3418Z" fill="black"/>
</g>
<defs>
<filter id="filter0_d_60_1835" x="-0.000488281" y="0" width="138" height="124.003" filterUnits="userSpaceOnUse" color-interpolation-filters="sRGB">
<feFlood flood-opacity="0" result="BackgroundImageFix"/>
<feColorMatrix in="SourceAlpha" type="matrix" values="0 0 0 0 0 0 0 0 0 0 0 0 0 0 0 0 0 0 127 0" result="hardAlpha"/>
<feOffset dy="9"/>
<feComposite in2="hardAlpha" operator="out"/>
<feColorMatrix type="matrix" values="0 0 0 0 0 0 0 0 0 0 0 0 0 0 0 0 0 0 0.15 0"/>
<feBlend mode="normal" in2="BackgroundImageFix" result="effect1_dropShadow_60_1835"/>
<feBlend mode="normal" in="SourceGraphic" in2="effect1_dropShadow_60_1835" result="shape"/>
</filter>
</defs>
</svg>
