<svg width="219" height="149" viewBox="0 0 219 149" fill="none" xmlns="http://www.w3.org/2000/svg">
<g filter="url(#filter0_d_60_1829)">
<path d="M53.7668 106.126L50.9272 108.603L45.6999 107.202L26.6215 100.748L23.1543 97.2526L14.3774 94.9008L8.25913 86.395L8.63792 74.0405L16.9285 61.4803L31.2914 52.8077L32.2926 53.0825L43.4647 37.1836L49.5203 26.9105L49.7005 26.7242C49.8637 26.553 50.5619 25.6977 51.2338 24.8679C59.0311 15.3156 60.0615 14.5819 61.8789 15.0689C62.5536 15.2497 63.1059 15.7169 63.3974 16.3553C65.1156 20.1055 69.4309 25.5419 74.0458 28.2313C79.2517 31.2678 92.4214 34.9986 95.4783 35.8438L105.478 32.4646L115.947 27.628C117.076 27.1097 118.357 26.9969 119.554 27.3178C121.074 27.7249 122.325 28.7702 122.992 30.1933L137.266 60.5587L154.89 77.2808L190.771 94.0613L198.213 101.078L200.511 108.599L199.825 109.262C199.806 109.309 199.787 109.356 199.768 109.403L196.171 117.137L192.663 122.568L182.139 128.393L169.401 131L167.5 128.418L162.996 131.831L143.268 132.349L141.697 129.628L138.7 132.135L122.319 127.745L120.451 124.164L117.201 126.374L99.9753 121.759L99.4429 118.834L96.4851 120.901L77.306 114.264L77.2624 111.777L74.3817 113.337L54.7863 109.761L53.7668 106.126Z" fill="#303030"/>
<path d="M118.978 29.4436C119.835 29.6732 120.588 30.2659 120.989 31.129L135.443 61.8682L153.628 79.1188L189.516 95.9009L196.278 102.273L198.014 107.95C197.925 108.037 197.818 108.145 197.688 108.266C197.758 108.298 197.807 108.383 197.77 108.471L194.238 116.059L191.118 120.897L181.373 126.292L170.345 128.549L167.957 125.303L162.236 129.634L144.522 130.099L142.297 126.245L138.167 129.699L123.828 125.857L121.263 120.941L116.802 123.974L101.898 119.981L100.996 115.055L96.148 118.44L79.485 112.672L79.4095 108.092L74.0193 111.019L56.5361 107.826L54.9276 102.183L50.3606 106.171L46.3308 105.091L27.814 98.8269L24.2897 95.2767L18.7524 93.793L15.7011 92.9754L10.4809 85.7135L10.8183 74.729L18.4932 63.1048L31.6209 55.1761L32.3548 55.3793L32.1642 57.0872L45.3223 38.3719L51.293 28.2454C52.1335 27.3697 60.2634 16.9162 61.3089 17.1964C61.3454 17.2061 61.377 17.2341 61.3992 17.2727C63.225 21.2537 67.7817 27.1262 72.9362 30.1359C79.1336 33.7509 95.5449 38.1483 95.5449 38.1483L106.291 34.5131L116.864 29.6263C117.555 29.3097 118.297 29.2612 118.978 29.4436ZM120.118 25.1888C118.422 24.7344 116.616 24.8887 115.017 25.6266L104.659 30.4147L95.4101 33.5454C90.234 32.0999 79.4257 28.8194 75.1539 26.3328C71.0863 23.9595 67.0007 18.9299 65.4018 15.4396C64.8333 14.2059 63.7619 13.2934 62.455 12.9432L62.449 12.9416C59.2883 12.0947 57.0786 14.6036 54.5218 17.508C52.8085 19.4529 50.9164 21.7732 49.531 23.4671C48.9403 24.1884 48.2778 25.0076 48.085 25.2165L47.7526 25.5574L47.4903 26.0018L41.6166 35.9849L31.3829 50.5456L30.9635 50.4332L29.3458 51.4134L16.2197 59.336L15.3715 59.8514L14.8233 60.6817L7.14835 72.3059L6.45923 73.346L6.41842 74.5924L6.081 85.5769L6.03908 87.0705L6.91318 88.2819L12.1334 95.5439L13.0492 96.8186L14.5688 97.2257L17.62 98.0433L22.0085 99.2192L24.6907 101.925L25.4247 102.662L26.4097 102.998L44.9265 109.262L45.0647 109.306L45.2045 109.343L49.2344 110.423L51.5015 111.031L52.6077 110.063L53.0646 111.664L55.7596 112.159L73.2428 115.351L74.7706 115.63L75.1372 115.429L75.1429 115.821L78.0581 116.83L94.721 122.598L96.8442 123.33L97.9099 122.586L98.0791 123.511L100.772 124.233L115.676 128.226L117.621 128.747L119.287 127.611L119.654 127.357L119.929 127.887L120.824 129.605L122.696 130.107L137.034 133.949L139.247 134.542L141.003 133.071L141.111 132.983L142.028 134.57L144.645 134.503L162.359 134.038L163.776 134.001L164.905 133.143L167.063 131.507L168.478 133.423L171.241 132.861L182.269 130.604L182.931 130.469L183.52 130.144L193.265 124.749L194.236 124.214L194.836 123.287L197.956 118.449L198.122 118.194L198.247 117.921L201.675 110.553L203.028 109.248L202.241 106.666L200.504 100.989L200.164 99.8747L199.317 99.0744L192.555 92.7023L192.04 92.219L191.398 91.9166L156.159 75.4385L139.095 59.2508L124.977 29.253C124.029 27.2466 122.264 25.7637 120.118 25.1888Z" fill="black"/>
<path d="M51.293 28.2453L45.3223 38.3718L29.5274 60.8496L32.1535 68.0679C32.1535 68.0679 64.5832 100.21 121.111 115.357C177.638 130.503 195.376 110.5 198.014 107.95L196.278 102.273L189.516 95.9008L153.628 79.1187L135.443 61.8682L120.989 31.1289C120.258 29.578 118.418 28.909 116.864 29.6262L106.291 34.513L95.5448 38.1482C95.5448 38.1482 79.1336 33.7508 72.9361 30.1358C67.7817 27.1261 63.225 21.2536 61.3992 17.2726C60.872 16.1281 52.1631 27.3319 51.293 28.2453Z" fill="#303030"/>
<path d="M120.948 115.964C64.9066 100.948 32.0383 68.8384 31.7079 68.5153L31.6104 68.4175L28.8222 60.7584L29.0114 60.4899L44.8063 38.0121L50.8363 27.8103C51.0181 27.618 51.685 26.8065 52.4535 25.8593C59.0882 17.7283 60.5153 16.4625 61.3668 16.5669C61.638 16.6004 61.8534 16.7689 61.9654 17.0074C63.8263 21.076 68.2987 26.7043 73.2461 29.587C78.9538 32.9144 93.7052 36.9908 95.5209 37.4839L106.052 33.9213L116.596 29.0463C118.456 28.1831 120.682 28.9944 121.559 30.8516L135.962 61.4862L153.987 78.5829L189.874 95.365L196.828 101.919L198.73 108.122L198.165 108.674C189.898 116.915 168.875 128.806 120.948 115.964ZM32.6967 67.7184C34.726 69.6758 67.0984 100.233 121.274 114.749C168.593 127.428 189.203 115.837 197.273 107.797C197.282 107.786 197.292 107.776 197.299 107.771L195.722 102.619L189.153 96.429L153.265 79.6469L134.919 62.2425L120.423 31.3942C119.841 30.1632 118.369 29.6256 117.129 30.1924L106.49 35.1071L95.5643 38.8049L95.382 38.7561C94.7073 38.5753 78.8176 34.2981 72.6218 30.677C67.635 27.7708 63.1083 22.1996 61.0497 17.9933C59.5823 19.118 55.1794 24.5115 53.4339 26.6497C52.5424 27.7398 52.0375 28.3602 51.798 28.6217L45.8634 38.6863L30.2326 60.9409L32.6967 67.7184Z" fill="black"/>
<path d="M58.9272 60.4148C58.9272 60.4148 113.602 89.8921 172.529 98.5154C172.529 98.5154 183.818 100.146 173.925 93.3064C164.031 86.4665 157.571 80.9635 157.571 80.9635L189.516 95.901L196.278 102.273L197.77 108.471L188.678 118.478L137.403 117.768L61.8379 91.0057L46.3161 82.0974L58.9272 60.4148Z" fill="#6D6D6D"/>
<path d="M137.287 118.395L137.191 118.363L61.5733 91.5797L61.5219 91.5529L45.4512 82.3347L58.6895 59.5758L59.225 59.8626C59.6637 60.0975 95.2028 79.0794 139.36 90.9176C150.063 93.7857 161.27 96.2349 172.617 97.8941C174.851 98.2126 177.149 98.0467 177.349 97.5463C177.365 97.5115 177.643 96.6416 173.571 93.824C163.765 87.0466 157.232 81.4981 157.169 81.4421L153.62 78.4197L189.879 95.3729L196.848 101.944L198.464 108.651L188.958 119.113L188.672 119.108L137.287 118.395ZM62.1025 90.4316L137.519 117.141L188.405 117.844L197.081 108.293L195.709 102.596L189.155 96.4231L161.968 83.7117C164.83 85.964 169.095 89.2046 174.28 92.7827C177.699 95.1451 179.008 96.753 178.516 98.0025C177.823 99.7646 173.689 99.3149 172.434 99.1351C117.168 91.0496 65.0084 64.3178 59.165 61.2537L47.1794 81.8662L62.1025 90.4316Z" fill="black"/>
<path d="M63.2749 41.8793L69.6789 42.2924L80.2184 41.8591L92.7834 47.506L98.3945 59.1202L110.093 64.0855L119.916 61.4666L132.154 66.85L136.248 75.25L146.95 79.6094L152.324 77.8833L160.165 82.1732L160.236 89.6385L145.52 87.4997L132.131 82.1076L127.533 74.7844L117.564 70.2435L104.418 80.402L88.805 70.4985L90.2542 62.926L76.7982 54.6234L56.4026 60.2333L63.2749 41.8793Z" fill="#303030"/>
<path d="M104.454 81.1674L88.1115 70.8014L89.553 63.2333L76.7013 55.3011L55.384 61.1657L62.8525 41.2191L69.6926 41.6577L80.3436 41.2218L80.4768 41.2835L93.2509 47.0255L98.8575 58.632L110.143 63.4148L119.971 60.7975L132.623 66.3635L136.713 74.7558L146.979 78.9399L152.397 77.1993L160.799 81.8024L160.88 90.3715L145.361 88.1154L145.29 88.0898L131.713 82.6212L127.11 75.2903L117.654 70.9778L104.454 81.1674ZM89.5045 70.1975L104.382 79.6368L117.478 69.5172L127.97 74.2958L132.553 81.602L145.682 86.892L159.597 88.9135L159.536 82.5519L152.258 78.5692L146.925 80.2868L135.79 75.7461L131.691 67.3384L119.866 62.1375L110.052 64.752L97.9358 59.6163L92.3264 47.9961L80.1037 42.506L69.6436 42.9345L63.7078 42.5492L57.4316 59.3104L76.9056 53.9552L90.9599 62.6266L89.5045 70.1975Z" fill="black"/>
<path d="M49.5647 31.1701L63.2749 41.8795L55.1651 76.449L26.9265 70.5568L31.627 55.1779L49.5647 31.1701Z" fill="#6D6D6D"/>
<path d="M26.1217 71.0317L31.0534 54.8874L31.1159 54.7999L49.4393 30.2766L63.9675 41.6287L63.8754 42.0209L55.632 77.1865L26.1217 71.0317ZM32.1945 55.4668L27.7251 70.0802L54.6938 75.7039L62.5701 42.1272L49.684 32.062L32.1945 55.4668Z" fill="black"/>
<path d="M78.4237 85.0263L90.9292 67.5303C90.9292 67.5303 94.4771 62.2399 101.541 65.9504C108.6 69.6592 106.808 76.3453 106.808 76.3453L100.453 95.2025L85.7059 96.7495L78.4237 85.0263Z" fill="#303030"/>
<path d="M85.3771 97.4172L77.6669 85.006L90.4133 67.1706C90.4445 67.1269 94.3572 61.4717 101.827 65.3951C105.693 67.4277 107.012 70.3348 107.432 72.4147C107.89 74.6677 107.43 76.4337 107.41 76.5066L100.914 95.7888L85.3771 97.4172ZM79.1788 85.0528L86.0329 96.088L99.9875 94.6284L106.215 76.1537C106.272 75.941 107.763 69.9368 101.247 66.5164C94.7934 63.1261 91.5812 67.6986 91.4513 67.8918L79.1788 85.0528Z" fill="black"/>
<path d="M146.183 85.8731L136.216 110.284L146.069 119.438L160.343 114.794L160.23 89.637C160.23 89.637 162.201 85.9762 153.692 83.6961C147.012 81.9062 146.183 85.8731 146.183 85.8731Z" fill="#303030"/>
<path d="M145.917 120.153L135.468 110.448L145.579 85.6722C145.659 85.3744 146.044 84.207 147.361 83.4003C148.905 82.4525 151.089 82.3473 153.855 83.0883C157.66 84.1078 159.989 85.5528 160.778 87.3734C161.257 88.4789 161.005 89.3951 160.862 89.7606L160.972 115.243L145.917 120.153ZM136.964 110.119L146.228 118.725L159.716 114.339L159.607 89.483L159.684 89.3408C159.695 89.3242 159.994 88.6943 159.616 87.8438C159.172 86.8518 157.753 85.4359 153.541 84.3072C151.152 83.6671 149.248 83.7236 148.031 84.4725C147.018 85.0935 146.81 85.989 146.807 86.0012L146.799 86.0575L146.778 86.1106L136.964 110.119Z" fill="black"/>
<path d="M182.944 115.638L173.236 116.105L160.349 114.796L144.312 112.453L131.9 109.127L107.22 98.4164L89.8086 90.142L78.4237 85.0262L58.2463 77.6653L42.9315 71.6074L31.4701 63.3246L32.3609 55.3809L31.627 55.1777L18.4994 63.1064L10.8244 74.7306L10.487 85.7151L15.7072 92.977L18.7585 93.7946L24.2958 95.2783L27.8201 98.8285L46.3369 105.093L50.3667 106.173L54.9337 102.185L56.5422 107.827L74.0254 111.02L79.4156 108.093L79.4911 112.674L96.1541 118.441L101.002 115.057L101.904 119.982L116.808 123.976L121.269 120.943L123.834 125.858L138.173 129.7L142.303 126.247L144.528 130.1L162.242 129.635L167.963 125.305L170.351 128.55L181.379 126.294L191.124 120.898L194.244 116.06L197.776 108.472C197.841 108.327 197.677 108.185 197.543 108.273L192.416 111.798L182.944 115.638Z" fill="#303030"/>
<path d="M56.0369 108.376L54.5987 103.313L50.526 106.867L46.174 105.701L27.4781 99.3754L23.9688 95.8423L15.3255 93.5263L9.84871 85.909L10.2004 74.5309L18.0508 62.641L31.5285 54.5L33.0387 54.9177L32.1283 63.032L43.2293 71.0553L58.4728 77.0877L78.6319 84.4437L90.0578 89.5769L107.481 97.8546L132.104 108.537L144.437 111.842L160.436 114.18L173.246 115.483L182.803 115.021L192.114 111.248L197.177 107.765C197.474 107.558 197.858 107.582 198.135 107.813C198.412 108.044 198.493 108.424 198.341 108.748L194.77 116.41L191.562 121.381L181.5 126.912L170.078 129.253L167.829 126.194L162.453 130.259L162.25 130.263L144.162 130.738L142.124 127.209L138.32 130.391L123.398 126.393L121.037 121.858L116.919 124.657L101.352 120.486L100.558 116.13L96.2477 119.138L78.8639 113.118L78.7982 109.133L74.1243 111.672L73.9067 111.633L56.0369 108.376ZM28.162 98.2818L46.5362 104.495L50.2014 105.477L55.2686 101.056L57.0414 107.277L73.9159 110.359L80.0224 107.044L80.1078 112.22L96.0499 117.736L101.442 113.976L102.444 119.475L116.685 123.291L121.496 120.02L124.259 125.321L138.014 129.006L142.465 125.28L144.876 129.458L162.013 129.007L168.079 124.411L170.605 127.843L181.145 125.684L190.668 120.412L193.685 115.741L196.466 109.763L192.646 112.375L183.073 116.253L173.161 116.724L160.281 115.416L144.149 113.061L131.648 109.705L106.968 98.9939L89.5396 90.7084L78.1668 85.596L58.0287 78.2586L42.5596 72.1202L30.8042 63.6218L31.6716 55.8868L18.9479 63.572L11.4484 74.9305L11.1252 85.5214L16.0889 92.4279L24.6227 94.7146L28.162 98.2818Z" fill="black"/>
<path d="M93.4417 57.6434C93.7532 58.1829 94.4022 58.435 95.0024 58.2375L128.299 47.1984C128.442 47.152 128.571 47.0824 128.687 46.9897L128.99 46.7582C129.514 46.358 129.658 45.6277 129.33 45.0513L129.121 44.6891C128.805 44.1419 128.142 43.8927 127.545 44.1039L94.1529 55.7428C93.3715 56.009 93.0279 56.9267 93.4417 57.6434Z" fill="#FFC200"/>
<path d="M94.0851 58.8647C93.5989 58.7344 93.1631 58.4157 92.9006 57.961C92.6069 57.4524 92.559 56.8532 92.7635 56.3087C92.9681 55.7641 93.4011 55.3394 93.9477 55.1472L127.34 43.5083C128.223 43.2041 129.201 43.564 129.668 44.3733L129.877 44.7355C130.362 45.5755 130.15 46.6588 129.379 47.2533L129.076 47.4848C128.904 47.6147 128.713 47.7199 128.506 47.7881L95.2031 58.8255C94.8284 58.9597 94.4437 58.9608 94.0851 58.8647ZM128.154 44.6775C128.026 44.6433 127.882 44.6439 127.746 44.692L94.3537 56.3308C94.1602 56.3963 94.002 56.5493 93.9316 56.7389C93.8596 56.9346 93.8744 57.147 93.9828 57.3259C94.1474 57.6111 94.4857 57.7343 94.7988 57.6358L128.095 46.5967C128.168 46.5705 128.235 46.5365 128.3 46.4887L128.603 46.2573C128.874 46.0496 128.951 45.6663 128.777 45.3657L128.568 45.0035C128.482 44.8372 128.33 44.7247 128.154 44.6775Z" fill="black"/>
<path d="M134.61 57.2216L128.763 59.1075C127.437 59.534 126.439 57.8855 127.436 56.9086L132.178 52.2702C132.662 51.8006 132.708 51.0443 132.291 50.5091L131.98 50.1131C131.499 49.5021 130.592 49.4349 130.03 49.975L117.317 62.1449C116.729 62.7104 116.786 63.6639 117.436 64.1572L118.385 64.8676C118.711 65.1112 119.132 65.1916 119.526 65.0822L135.592 60.6313C136.282 60.4384 136.694 59.7279 136.521 59.0366L136.295 58.1551C136.103 57.4131 135.331 56.9849 134.61 57.2216Z" fill="#FFC200"/>
<path d="M118.672 65.6936C118.435 65.6301 118.209 65.524 118.009 65.3726L117.059 64.6621C116.598 64.317 116.315 63.7917 116.279 63.2218C116.244 62.6457 116.464 62.0923 116.877 61.6947L129.591 49.5248C129.986 49.1423 130.527 48.9483 131.076 48.9912C131.62 49.0263 132.133 49.3005 132.474 49.7306L132.785 50.1266C133.402 50.9108 133.325 52.0238 132.616 52.7262L127.875 57.3646C127.584 57.6452 127.629 57.9894 127.764 58.2145C127.899 58.4396 128.184 58.6398 128.57 58.515L134.417 56.629C134.923 56.4651 135.489 56.5188 135.961 56.7756C136.431 57.0384 136.775 57.4823 136.909 58.0005L137.136 58.882C137.396 59.9029 136.78 60.9626 135.768 61.2386L119.702 65.6895C119.353 65.7783 119 65.7815 118.672 65.6936ZM131.125 50.2681C131.082 50.2567 131.038 50.2513 130.994 50.246C130.795 50.232 130.608 50.2991 130.467 50.4371L117.749 62.5993C117.6 62.7418 117.522 62.9359 117.538 63.1422C117.548 63.3469 117.649 63.5302 117.812 63.652L118.762 64.3625C118.935 64.4937 119.153 64.5324 119.357 64.4763L135.422 60.0254C135.781 59.9261 135.998 59.5543 135.906 59.191L135.68 58.3095C135.633 58.1209 135.512 57.9647 135.347 57.875C135.184 57.7791 134.985 57.7651 134.801 57.82L128.954 59.706C128.076 59.9919 127.164 59.6499 126.686 58.8573C126.208 58.0647 126.33 57.1005 126.991 56.4568L131.732 51.8184C131.986 51.5739 132.008 51.1759 131.79 50.8959L131.479 50.4999C131.393 50.3855 131.264 50.3055 131.125 50.2681Z" fill="black"/>
<path d="M140.213 65.2439L135.705 76.1597C135.421 76.8525 135.77 77.643 136.469 77.902L136.742 78.0012C137.395 78.2412 138.123 77.9283 138.404 77.2935L143.122 66.5185C143.406 65.8716 143.132 65.1205 142.499 64.8076L142.016 64.5675C141.332 64.2278 140.505 64.5406 140.213 65.2439Z" fill="#FFC200"/>
<path d="M136.693 78.6462C136.639 78.6315 136.584 78.6168 136.525 78.5945L136.252 78.4952C135.748 78.3082 135.351 77.9413 135.138 77.4477C134.924 76.9602 134.919 76.4183 135.124 75.9195L139.632 65.0037C139.837 64.505 140.242 64.1119 140.749 63.922C141.256 63.7321 141.816 63.7583 142.299 63.9984L142.782 64.2385C143.719 64.7046 144.12 65.8088 143.707 66.7666L138.989 77.5415C138.594 78.4324 137.611 78.8921 136.693 78.6462ZM140.793 65.4842L136.285 76.4C136.212 76.5759 136.214 76.7652 136.29 76.942C136.366 77.1188 136.508 77.2479 136.685 77.315L136.958 77.4142C137.297 77.5374 137.679 77.3729 137.827 77.0411L142.545 66.2662C142.694 65.9283 142.551 65.5382 142.218 65.3708L141.735 65.1307C141.562 65.0453 141.363 65.0374 141.189 65.1016C141.008 65.1703 140.866 65.3084 140.793 65.4842Z" fill="black"/>
<path d="M102.896 72.1238L96.0809 68.8718L94.9969 71.1434L101.812 74.3954L102.896 72.1238Z" fill="#FFC200"/>
<path d="M102.109 75.236L94.1604 71.445L95.7839 68.0364L103.732 71.8274L102.109 75.236ZM95.8389 70.8459L101.517 73.5531L102.057 72.4144L96.3785 69.7071L95.8389 70.8459Z" fill="black"/>
<path d="M157.396 88.9251L149.965 87.582L149.517 90.0591L156.948 91.4021L157.396 88.9251Z" fill="#FFC200"/>
<path d="M148.776 90.5678L149.446 86.8516L158.12 88.4201L157.45 92.1363L148.776 90.5678ZM150.461 88.3157L150.24 89.5529L156.435 90.6722L156.656 89.4349L150.461 88.3157Z" fill="black"/>
</g>
<defs>
<filter id="filter0_d_60_1829" x="6.03906" y="12.7749" width="196.988" height="130.795" filterUnits="userSpaceOnUse" color-interpolation-filters="sRGB">
<feFlood flood-opacity="0" result="BackgroundImageFix"/>
<feColorMatrix in="SourceAlpha" type="matrix" values="0 0 0 0 0 0 0 0 0 0 0 0 0 0 0 0 0 0 127 0" result="hardAlpha"/>
<feOffset dy="9"/>
<feComposite in2="hardAlpha" operator="out"/>
<feColorMatrix type="matrix" values="0 0 0 0 0 0 0 0 0 0 0 0 0 0 0 0 0 0 0.15 0"/>
<feBlend mode="normal" in2="BackgroundImageFix" result="effect1_dropShadow_60_1829"/>
<feBlend mode="normal" in="SourceGraphic" in2="effect1_dropShadow_60_1829" result="shape"/>
</filter>
</defs>
</svg>
