<svg width="150" height="150" viewBox="0 0 150 150" fill="none" xmlns="http://www.w3.org/2000/svg">
<g filter="url(#filter0_d_60_1834)">
<path d="M90.1956 132.294C121.956 123.784 140.804 91.1378 132.294 59.3771C123.784 27.6165 91.1379 8.76838 59.3773 17.2786C27.6167 25.7888 8.76856 58.4348 17.2788 90.1954C25.789 121.956 58.435 140.804 90.1956 132.294Z" fill="white"/>
<path d="M59.7724 18.7533C90.717 10.4617 122.528 28.8278 130.82 59.7724C139.111 90.717 120.745 122.528 89.8005 130.82C58.8559 139.111 27.0449 120.745 18.7534 89.8004C10.4618 58.8558 28.8278 27.0449 59.7724 18.7533ZM58.9822 15.8042C43.2255 20.0261 30.0604 30.1283 21.9071 44.2565C13.7484 58.3816 11.5822 74.8339 15.8042 90.5906C20.0262 106.347 30.1284 119.512 44.2565 127.666C58.3816 135.824 74.834 137.991 90.5907 133.769C106.347 129.547 119.513 119.444 127.666 105.316C135.825 91.1912 137.991 74.7388 133.769 58.9821C129.547 43.2255 119.445 30.0604 105.316 21.907C91.1913 13.7483 74.7389 11.5822 58.9822 15.8042Z" fill="black"/>
<path d="M80.2923 15.2871L70.1983 23.4871L88.0432 35.7877L108.873 34.2206L104.814 22.8635C104.814 22.8635 95.5499 16.6174 80.2923 15.2871Z" fill="#1C1C1C" stroke="black" stroke-width="4" stroke-miterlimit="10"/>
<path d="M31.5719 33.6292L45.4355 32.6554L38.4477 53.9308L23.9086 66.0674L19.258 53.767C19.258 53.767 22.2918 44.1082 31.5719 33.6292Z" fill="#1C1C1C" stroke="black" stroke-width="4" stroke-miterlimit="10"/>
<path d="M22.3905 103.375L23.9107 91.3535L40.9972 104.295L50.1373 122.094L38.8998 122.572C38.901 122.576 29.7782 116.621 22.3905 103.375Z" fill="#1C1C1C" stroke="black" stroke-width="4" stroke-miterlimit="10"/>
<path d="M73.774 128.625L89.9537 117.539L111.597 115.266L105.672 125.14C105.672 125.14 99.4686 130.636 83.603 133.794L73.774 128.625Z" fill="#1C1C1C" stroke="black" stroke-width="4" stroke-miterlimit="10"/>
<path d="M118.267 76.8627L123.916 55.0744L132.268 60.9646C132.268 60.9646 135.993 74.8675 133.113 86.025L125.085 94.7235L118.267 76.8627Z" fill="#1C1C1C" stroke="black" stroke-width="4" stroke-miterlimit="10"/>
<path d="M57.4158 65.8899L81.6351 57.3729L97.421 77.5268L83.9974 98.6798L58.8999 92.4768L57.4158 65.8899Z" fill="#1C1C1C" stroke="black" stroke-width="4" stroke-miterlimit="10"/>
<path d="M38.4478 53.9309L57.4158 65.8899" stroke="black" stroke-width="4" stroke-miterlimit="10"/>
<path d="M88.0431 35.7875L81.635 57.3727" stroke="black" stroke-width="4" stroke-miterlimit="10"/>
<path d="M118.267 76.863L97.4209 77.5269" stroke="black" stroke-width="4" stroke-miterlimit="10"/>
<path d="M89.9548 117.543L83.9973 98.6797" stroke="black" stroke-width="4" stroke-miterlimit="10"/>
<path d="M40.9972 104.295L58.8998 92.4768" stroke="black" stroke-width="4" stroke-miterlimit="10"/>
<path d="M23.9108 91.3536L23.9086 66.0674" stroke="black" stroke-width="4" stroke-miterlimit="10"/>
<path d="M45.4355 32.6555L70.1983 23.4871" stroke="black" stroke-width="4" stroke-miterlimit="10"/>
<path d="M108.873 34.2205L123.916 55.0745" stroke="black" stroke-width="4" stroke-miterlimit="10"/>
<path d="M125.085 94.7236L111.598 115.27" stroke="black" stroke-width="4" stroke-miterlimit="10"/>
<path d="M73.774 128.625L50.1332 122.095" stroke="black" stroke-width="4" stroke-miterlimit="10"/>
</g>
<defs>
<filter id="filter0_d_60_1834" x="13.697" y="13.2244" width="122.508" height="131.67" filterUnits="userSpaceOnUse" color-interpolation-filters="sRGB">
<feFlood flood-opacity="0" result="BackgroundImageFix"/>
<feColorMatrix in="SourceAlpha" type="matrix" values="0 0 0 0 0 0 0 0 0 0 0 0 0 0 0 0 0 0 127 0" result="hardAlpha"/>
<feOffset dy="9"/>
<feComposite in2="hardAlpha" operator="out"/>
<feColorMatrix type="matrix" values="0 0 0 0 0 0 0 0 0 0 0 0 0 0 0 0 0 0 0.15 0"/>
<feBlend mode="normal" in2="BackgroundImageFix" result="effect1_dropShadow_60_1834"/>
<feBlend mode="normal" in="SourceGraphic" in2="effect1_dropShadow_60_1834" result="shape"/>
</filter>
</defs>
</svg>
