<svg width="205" height="244" viewBox="0 0 205 244" fill="none" xmlns="http://www.w3.org/2000/svg">
<g filter="url(#filter0_d_60_1715)">
<path d="M20.0646 197.445C18.7866 196.891 17.5517 196.239 16.3959 195.502L16.3365 195.466C10.9101 192.022 6.62138 189.307 5.82673 184.963C5.33339 182.288 6.31556 179.351 8.8307 175.994C12.8135 170.672 17.0984 171.477 19.3021 172.431C22.2328 173.7 24.2823 176.336 24.6133 176.785L34.7702 188.883L127.732 107.945L132.778 113.953L34.5839 199.629L34.0719 199.697C33.7939 199.732 27.2446 200.554 20.0646 197.445Z" fill="white"/>
<path d="M127.543 110.4L130.374 113.77L33.8457 197.991C33.8457 197.991 27.5768 198.821 20.7535 195.866C19.6155 195.373 18.4631 194.778 17.3189 194.052C9.3255 188.982 3.84607 185.537 10.2103 177.031C13.1787 173.061 16.2179 172.978 18.6158 174.016C21.3568 175.203 23.2595 177.855 23.2595 177.855L34.5814 191.338L127.543 110.4ZM127.924 105.497L125.28 107.8L34.9616 186.435L25.9678 175.725C25.4515 175.035 23.2359 172.263 19.9891 170.857C15.4507 168.892 10.8806 170.393 7.4563 174.97C4.64177 178.733 3.55782 182.103 4.14039 185.278C5.07507 190.364 9.86657 193.404 15.4207 196.925L15.48 196.961C16.7132 197.742 18.03 198.441 19.3892 199.029C27.0028 202.326 34.0118 201.446 34.3072 201.408L35.3377 201.27L36.1221 200.585L132.65 116.365L135.199 114.144L133.027 111.557L130.196 108.186L127.924 105.497Z" fill="black"/>
<path d="M125.165 110.244L191.047 49.5401L198.984 58.9882L130.157 116.191L125.165 110.244Z" fill="#303030"/>
<path d="M190.891 52.0305L196.552 58.7717L130.374 113.77L127.543 110.4L190.891 52.0305ZM191.208 47.0517L188.557 49.4966L125.209 107.866L122.79 110.095L124.906 112.614L127.736 115.985L129.942 118.608L132.578 116.419L198.757 61.4208L201.421 59.2067L199.196 56.5543L193.535 49.8131L191.208 47.0517Z" fill="black"/>
<path d="M21.3392 173.002L7.51774 190.135C7.51774 190.135 17.2706 197.098 27.5587 198.813L34.7769 190.886L21.3392 173.002Z" fill="#ABABAB"/>
<path d="M127.543 110.4L130.374 113.77L33.8457 197.991C33.8457 197.991 27.5768 198.821 20.7535 195.866C19.6155 195.373 18.4631 194.778 17.3189 194.052C9.3255 188.982 3.84607 185.537 10.2103 177.031C13.1787 173.061 16.2179 172.978 18.6158 174.016C21.3568 175.203 23.2595 177.855 23.2595 177.855L34.5814 191.338L127.543 110.4ZM127.924 105.497L125.28 107.8L34.9616 186.435L25.9678 175.725C25.4515 175.035 23.2359 172.263 19.9891 170.857C15.4507 168.892 10.8806 170.393 7.4563 174.97C4.64177 178.733 3.55782 182.103 4.14039 185.278C5.07507 190.364 9.86657 193.404 15.4207 196.925L15.48 196.961C16.7132 197.742 18.03 198.441 19.3892 199.029C27.0028 202.326 34.0118 201.446 34.3072 201.408L35.3377 201.27L36.1221 200.585L132.65 116.365L135.199 114.144L133.027 111.557L130.196 108.186L127.924 105.497Z" fill="black"/>
<path d="M131.161 103.619L129.834 105.073L136.004 110.702L137.33 109.247L131.161 103.619Z" fill="black"/>
<path d="M134.767 100.514L133.44 101.968L139.61 107.596L140.937 106.141L134.767 100.514Z" fill="black"/>
<path d="M138.381 97.417L137.055 98.8713L143.225 104.499L144.551 103.044L138.381 97.417Z" fill="black"/>
<path d="M141.995 94.3132L140.669 95.7676L146.839 101.395L148.166 99.9407L141.995 94.3132Z" fill="black"/>
<path d="M145.606 91.2141L144.28 92.6685L150.45 98.2959L151.776 96.8416L145.606 91.2141Z" fill="black"/>
<path d="M149.217 88.1128L147.89 89.5671L154.06 95.1946L155.387 93.7402L149.217 88.1128Z" fill="black"/>
<path d="M152.828 85.0127L151.501 86.467L157.671 92.0945L158.998 90.6401L152.828 85.0127Z" fill="black"/>
<path d="M156.442 81.9089L155.115 83.3633L161.285 88.9907L162.612 87.5364L156.442 81.9089Z" fill="black"/>
<path d="M160.053 78.8097L158.727 80.264L164.897 85.8915L166.223 84.4371L160.053 78.8097Z" fill="black"/>
<path d="M163.663 75.7084L162.337 77.1627L168.507 82.7902L169.834 81.3358L163.663 75.7084Z" fill="black"/>
<path d="M167.274 72.6084L165.947 74.0627L172.118 79.6902L173.444 78.2358L167.274 72.6084Z" fill="black"/>
<path d="M170.889 69.5116L169.562 70.9659L175.732 76.5934L177.059 75.139L170.889 69.5116Z" fill="black"/>
<path d="M174.503 66.4086L173.177 67.8629L179.347 73.4904L180.674 72.036L174.503 66.4086Z" fill="black"/>
<path d="M178.113 63.3075L176.787 64.7618L182.957 70.3893L184.283 68.9349L178.113 63.3075Z" fill="black"/>
<path d="M181.724 60.2073L180.398 61.6616L186.568 67.2891L187.894 65.8347L181.724 60.2073Z" fill="black"/>
<path d="M185.335 57.1072L184.009 58.5615L190.179 64.189L191.505 62.7346L185.335 57.1072Z" fill="black"/>
<path d="M188.956 54.0047L187.63 55.459L193.8 61.0872L195.126 59.6329L188.956 54.0047Z" fill="black"/>
</g>
<defs>
<filter id="filter0_d_60_1715" x="3.98798" y="47.0518" width="197.433" height="163.491" filterUnits="userSpaceOnUse" color-interpolation-filters="sRGB">
<feFlood flood-opacity="0" result="BackgroundImageFix"/>
<feColorMatrix in="SourceAlpha" type="matrix" values="0 0 0 0 0 0 0 0 0 0 0 0 0 0 0 0 0 0 127 0" result="hardAlpha"/>
<feOffset dy="9"/>
<feComposite in2="hardAlpha" operator="out"/>
<feColorMatrix type="matrix" values="0 0 0 0 0 0 0 0 0 0 0 0 0 0 0 0 0 0 0.15 0"/>
<feBlend mode="normal" in2="BackgroundImageFix" result="effect1_dropShadow_60_1715"/>
<feBlend mode="normal" in="SourceGraphic" in2="effect1_dropShadow_60_1715" result="shape"/>
</filter>
</defs>
</svg>
