<svg width="130" height="139" viewBox="0 0 130 139" fill="none" xmlns="http://www.w3.org/2000/svg">
<g filter="url(#filter0_d_60_1832)">
<path d="M64.9975 128.248C99.9297 128.248 128.248 99.9297 128.248 64.9975C128.248 30.0652 99.9297 1.74707 64.9975 1.74707C30.0653 1.74707 1.74712 30.0652 1.74712 64.9975C1.74712 99.9297 30.0653 128.248 64.9975 128.248Z" fill="#E5740E"/>
<path d="M64.9975 3.49422C98.9663 3.49422 126.501 31.0287 126.501 64.9975C126.501 98.9663 98.9663 126.501 64.9975 126.501C31.0287 126.506 3.49422 98.9663 3.49422 64.9975C3.49422 31.0287 31.0287 3.49422 64.9975 3.49422ZM64.9975 0C47.6362 0 31.3132 6.75882 19.0385 19.0385C6.75882 31.3132 0 47.6362 0 64.9975C0 82.3588 6.75882 98.6818 19.0385 110.956C31.3132 123.231 47.6362 129.995 64.9975 129.995C82.3588 129.995 98.6818 123.236 110.956 110.956C123.231 98.6818 129.995 82.3588 129.995 64.9975C129.995 47.6362 123.236 31.3132 110.956 19.0385C98.6818 6.75882 82.3588 0 64.9975 0Z" fill="black"/>
<path d="M124.12 81.4453C123.226 71.5168 118.958 57.8144 109.664 49.1338C92.6668 33.2501 77.6716 33.7942 64.4385 34.2784C57.9392 34.513 51.8044 34.7376 46.3983 32.7858C29.7608 26.7708 32.8208 9.97355 32.8557 9.80383L36.285 10.4727L34.5679 10.1383L36.285 10.4677C36.1752 11.0368 33.7991 24.5145 47.5913 29.4963C52.3584 31.2184 57.8993 31.0138 64.3187 30.7841C77.5418 30.3049 93.9946 29.7059 112.055 46.578C122.063 55.9325 126.651 70.5583 127.604 81.1309L124.12 81.4453Z" fill="black"/>
<path d="M112.184 104.926C112.11 104.672 104.183 79.0093 72.1057 55.2636C55.4433 42.929 38.9156 39.2351 27.9837 38.3066C16.1034 37.2983 8.06666 39.2451 7.98679 39.265L7.14319 35.8756C7.48762 35.7908 15.709 33.7841 28.1235 34.8124C39.5446 35.7608 56.8061 39.5895 74.1823 52.4532C107.273 76.9527 115.214 102.85 115.534 103.938L112.184 104.926Z" fill="black"/>
<path d="M101.123 110.243C91.908 110.243 82.6284 108.171 74.1224 100.589C54.1904 82.828 49.573 69.5949 46.5181 60.8344C44.0821 53.8609 42.7393 50.0173 35.7559 47.801C17.6558 42.0704 3.17476 64.0092 3.02999 64.2338L0.0948486 62.3369C0.738784 61.3386 16.1633 37.9273 36.8091 44.4765C45.4598 47.2219 47.2868 52.4483 49.8126 59.6913C52.9275 68.6115 57.1904 80.8263 76.4436 97.988C87.0011 107.397 99.1261 107.462 110.657 106.129L111.056 109.599C107.782 109.973 104.457 110.243 101.123 110.243Z" fill="black"/>
<path d="M48.2053 127.334C44.3666 124.903 39.7593 119.767 35.8757 113.592C32.6111 108.401 28.2633 99.9747 26.0919 89.3173C22.6725 72.5151 25.992 56.2021 35.701 42.1453C48.8742 23.0669 66.4651 16.0734 78.9045 13.5676C92.3623 10.8521 102.595 12.6241 103.025 12.704L102.411 16.1433C102.311 16.1283 92.2974 14.4062 79.4636 17.0219C62.3519 20.5061 48.5946 29.626 38.5762 44.132C27.0103 60.8793 27.2699 77.5717 29.5162 88.6235C31.6577 99.151 39.6744 117.795 50.0722 124.384L48.2053 127.334Z" fill="black"/>
</g>
<defs>
<filter id="filter0_d_60_1832" x="0" y="0" width="129.995" height="138.995" filterUnits="userSpaceOnUse" color-interpolation-filters="sRGB">
<feFlood flood-opacity="0" result="BackgroundImageFix"/>
<feColorMatrix in="SourceAlpha" type="matrix" values="0 0 0 0 0 0 0 0 0 0 0 0 0 0 0 0 0 0 127 0" result="hardAlpha"/>
<feOffset dy="9"/>
<feComposite in2="hardAlpha" operator="out"/>
<feColorMatrix type="matrix" values="0 0 0 0 0 0 0 0 0 0 0 0 0 0 0 0 0 0 0.15 0"/>
<feBlend mode="normal" in2="BackgroundImageFix" result="effect1_dropShadow_60_1832"/>
<feBlend mode="normal" in="SourceGraphic" in2="effect1_dropShadow_60_1832" result="shape"/>
</filter>
</defs>
</svg>
