<svg width="211" height="178" viewBox="0 0 211 178" fill="none" xmlns="http://www.w3.org/2000/svg">
<g filter="url(#filter0_d_60_1831)">
<path d="M113.143 67.3645C111.618 67.1782 110.065 66.9937 108.506 66.8123L105.589 66.4752L107.062 62.7233L107.08 62.676C107.35 62.0723 107.795 61.5768 108.366 61.2474C108.903 60.9374 109.508 60.7969 110.121 60.8382L113.017 61.0232C114.002 61.0885 114.905 61.6189 115.438 62.4521C115.952 63.2517 116.07 64.2575 115.759 65.1529L115.011 67.5909L113.143 67.3645Z" fill="white"/>
<path d="M109.505 63.2075C109.65 63.1236 109.813 63.082 109.99 63.0916L112.88 63.2798C113.456 63.3205 113.829 63.9029 113.624 64.439L113.413 65.1201C111.883 64.937 110.33 64.7525 108.762 64.5688L109.14 63.5969C109.223 63.4299 109.348 63.298 109.505 63.2075ZM107.244 59.292C106.26 59.8604 105.492 60.7138 105.025 61.7518L104.984 61.8497L104.944 61.9476L104.565 62.9195L102.419 68.3873L108.256 69.0671C109.815 69.2484 111.36 69.4306 112.885 69.6169L116.639 70.0745L117.75 66.4571L117.934 65.8587C118.45 64.323 118.243 62.6078 117.362 61.237C116.445 59.8046 114.88 58.8886 113.183 58.7792L110.287 58.5942C109.212 58.5141 108.167 58.7591 107.244 59.292Z" fill="black"/>
<path d="M105.359 66.4515C103.812 66.2781 102.259 66.108 100.716 65.9402L97.649 65.6149L99.2264 62.0044C99.5016 61.383 99.9497 60.8931 100.52 60.5637C101.057 60.2537 101.662 60.1132 102.275 60.1545L105.172 60.3395C106.156 60.4048 107.059 60.9352 107.593 61.7684C108.126 62.6016 108.235 63.6426 107.879 64.5639L107.134 66.6575L105.359 66.4515Z" fill="white"/>
<path d="M101.651 62.5215C101.796 62.4376 101.958 62.396 102.136 62.4056L105.026 62.5938C105.602 62.6345 105.975 63.2169 105.77 63.753L105.606 64.2056C104.059 64.0322 102.498 63.8597 100.948 63.6951L101.292 62.9077C101.369 62.7439 101.494 62.612 101.651 62.5215ZM99.3899 58.606C98.4054 59.1744 97.6377 60.0278 97.1705 61.0658L97.1657 61.0834L97.161 61.1011L96.8176 61.8885L94.3472 67.5436L100.484 68.1997C102.028 68.3674 103.577 68.532 105.118 68.7086L108.676 69.1085L109.882 65.7343L110.033 65.3115C110.61 63.7402 110.414 61.9666 109.511 60.5566C108.594 59.1242 107.029 58.2082 105.332 58.0988L102.436 57.9138C101.357 57.8281 100.313 58.0731 99.3899 58.606Z" fill="black"/>
<path d="M97.9905 65.6639C96.4211 65.5035 94.8606 65.3454 93.3153 65.2008L90.1751 64.9032L91.9306 60.9809C92.2011 60.3773 92.6403 59.885 93.2165 59.5524C93.7535 59.2423 94.3585 59.1019 94.9716 59.1432L97.8677 59.3282C98.8526 59.3935 99.7555 59.9238 100.289 60.7571C100.822 61.5903 100.931 62.6313 100.575 63.5526L99.7025 65.839L97.9905 65.6639Z" fill="white"/>
<path d="M94.3556 61.5125C94.5011 61.4286 94.6635 61.387 94.8406 61.3966L97.7312 61.5848C98.3066 61.6255 98.6801 62.2079 98.475 62.744L98.2224 63.4045C96.6442 63.2416 95.078 63.0868 93.5328 62.9423L93.9968 61.8987C94.0738 61.7349 94.199 61.603 94.3556 61.5125ZM92.095 57.597C91.1105 58.1654 90.3428 59.0188 89.8755 60.0568L89.4115 61.1003L86.8342 66.8544L93.1058 67.4474C94.6422 67.5896 96.194 67.7453 97.7577 67.909L101.205 68.2606L102.446 65.0232L102.699 64.3627C103.309 62.7721 103.117 60.9664 102.2 59.534C101.284 58.1016 99.7185 57.1857 98.0219 57.0763L95.1258 56.8913C94.0623 56.8191 93.0179 57.0641 92.095 57.597Z" fill="black"/>
<path d="M90.7137 64.9577C89.1308 64.8125 87.572 64.6833 86.0573 64.5658L82.8564 64.3181L84.408 60.8566C84.6729 60.2562 85.1178 59.7607 85.6939 59.4281C86.2309 59.118 86.836 58.9776 87.449 59.0189L90.3452 59.2039C91.3301 59.2692 92.233 59.7995 92.7662 60.6328C93.2995 61.466 93.4083 62.507 93.0527 63.4283L92.404 65.108L90.7137 64.9577Z" fill="white"/>
<path d="M86.8242 61.3858C86.9697 61.3019 87.1321 61.2603 87.3092 61.2699L90.1998 61.4581C90.7752 61.4988 91.1487 62.0812 90.9436 62.6173L90.9112 62.7032C89.3171 62.5645 87.755 62.4296 86.2315 62.3098L86.4743 61.7744C86.5424 61.6082 86.6676 61.4763 86.8242 61.3858ZM84.5636 57.4703C83.5791 58.0387 82.8114 58.8921 82.3441 59.9301L82.1014 60.4655L79.478 66.3208L85.8742 66.8195C87.3425 66.9339 88.9013 67.0632 90.5074 67.2098L93.9112 67.5119L95.1348 64.3219L95.1673 64.236C95.7779 62.6454 95.5856 60.8397 94.6691 59.4073C93.7526 57.9749 92.1871 57.059 90.4906 56.9496L87.5944 56.7646C86.531 56.6924 85.4865 56.9374 84.5636 57.4703Z" fill="black"/>
<path d="M136.319 70.4067C134.948 70.2141 133.343 69.9921 131.542 69.7414L128.499 69.3279L130.667 64.698C130.922 64.1329 131.367 63.6374 131.937 63.308C132.474 62.998 133.08 62.8575 133.693 62.8988L136.589 63.0838C137.574 63.1491 138.477 63.6795 139.01 64.5127C139.53 65.3235 139.649 66.3437 139.322 67.2488L138.187 70.6708L136.319 70.4067Z" fill="white"/>
<path d="M133.068 65.2658C133.213 65.1818 133.376 65.1402 133.553 65.1499L136.443 65.3381C137.019 65.3788 137.392 65.9612 137.187 66.4972L136.636 68.1653C135.256 67.9704 133.651 67.7484 131.854 67.5032L132.718 65.6543C132.786 65.4882 132.911 65.3562 133.068 65.2658ZM130.807 61.3502C129.834 61.9122 129.076 62.7447 128.611 63.7595L127.757 65.5875L125.151 71.1494L131.24 71.982C133.037 72.2271 134.636 72.4523 136.008 72.6449L139.741 73.1675L140.93 69.5946L141.466 67.9795C142.015 66.4245 141.812 64.6773 140.921 63.2896C140.005 61.8573 138.439 60.9413 136.743 60.8319L133.847 60.6469C132.775 60.5724 131.73 60.8174 130.807 61.3502Z" fill="black"/>
<path d="M128.426 127.022C97.2639 145.014 74.5778 157.082 61.005 162.897C50.318 167.471 48.4406 166.855 47.4077 165.557L38.3281 155.256L37.5653 148.574L36.5221 146.767L24.6301 120.899L24.3733 108.57C24.3418 107.081 25.124 105.697 26.4105 104.954C27.4733 104.341 28.7403 104.236 29.8975 104.664C33.9403 106.164 42.0796 107.886 51.2868 102.57C62.8489 95.8947 64.6152 86.8499 64.8602 85.0005L62.6229 76.2683L64.1849 74.039C61.6866 69.2985 61.4014 63.0044 61.3897 62.7128L61.3307 61.3447L62.5166 60.66C64.2674 59.6492 68.5636 58.6679 86.409 60.0593L89.6043 60.3103L89.6019 60.3191L91.1175 60.451C91.9903 60.5288 92.8663 60.6122 93.7479 60.6924L96.8881 60.9901L96.8858 60.9989L98.4551 61.1593C99.3665 61.2522 100.281 61.3507 101.192 61.4436L104.259 61.7688L104.253 61.7721C104.253 61.7721 107.974 62.1969 109.026 62.3132L111.943 62.6503C111.943 62.6503 115.761 63.1156 116.787 63.2392L119.712 63.6019L124.515 64.2223L127.461 64.6097C127.461 64.6097 131.23 65.1185 132.161 65.2449L135.204 65.6584L136.958 65.9062C139.278 66.2299 140.933 66.4749 141.712 66.5844L183.76 54.0771C187.443 52.1748 191.925 56.3593 192.802 57.2326L193.014 57.4456L198.178 66.3898L198.229 66.517C199.371 69.2438 201.412 84.8836 128.426 127.022ZM132.601 71.226L133.457 70.5524L134.786 66.5487L132.601 71.226ZM124.188 72.3762L125.117 71.6462L126.983 65.7583L124.188 72.3762ZM116.07 72.5886L117.02 71.8457L119.145 65.0105L116.07 72.5886ZM107.96 72.8034L108.924 72.0452L111.311 64.2827L107.96 72.8034ZM99.6179 72.3839L100.558 71.6474L103.272 64.0389L99.6179 72.3839ZM91.3099 73.4439L92.2496 72.7075L95.8061 63.4048L91.3099 73.4439ZM83.7785 73.3172L84.7182 72.5808L88.2692 63.2813L83.7785 73.3172Z" fill="white"/>
<path d="M63.6469 62.6178C66.0074 61.255 75.0644 61.4406 86.2315 62.3098L81.1769 73.6036L83.0177 76.792L86.6103 73.972L90.9112 62.7031C91.7751 62.7786 92.6512 62.862 93.5328 62.9422L88.7082 73.7303L90.5491 76.9187L94.1417 74.0987L98.2256 63.41C99.1313 63.5061 100.043 63.599 100.957 63.6975L97.0354 72.6518L98.8762 75.8402L102.469 73.0201L105.615 64.2079C106.67 64.3298 107.725 64.4517 108.771 64.5712L105.449 73.0149L107.29 76.2033L110.883 73.3832L113.422 65.1225C114.466 65.2508 115.501 65.3768 116.512 65.5013L113.54 72.8186L115.381 76.007L118.973 73.187L121.183 66.0862C122.221 66.2178 123.236 66.3478 124.222 66.4796L121.631 72.6224L123.471 75.8107L127.064 72.9907L128.924 67.106C129.943 67.2417 130.923 67.3767 131.845 67.5008L129.952 71.547L131.793 74.7354L135.386 71.9154L136.631 68.1685C139.911 68.6314 141.867 68.9191 141.867 68.9191L184.506 56.2345L184.531 56.2648C184.584 56.2269 184.64 56.1946 184.696 56.1623C187.095 54.7769 191.189 58.8573 191.189 58.8573L196.133 67.4212C196.133 67.4212 202.245 81.7923 127.29 125.068C52.3352 168.343 49.1502 164.118 49.1502 164.118L40.5013 154.292L39.7644 147.849L38.5404 145.729L26.891 120.384L26.6452 108.526C26.6316 107.818 27.0071 107.228 27.5553 106.911C28.0084 106.65 28.5713 106.578 29.1218 106.783C33.3308 108.35 42.315 110.36 52.4171 104.528C66.4013 96.4541 67.1507 84.8341 67.1507 84.8341L65.0716 76.7117L66.8731 74.1352C63.9401 69.8173 63.6469 62.6178 63.6469 62.6178ZM61.3862 58.7023L59.0201 60.0684L59.1292 62.8022C59.1581 63.5239 59.4516 68.9928 61.5761 73.8223L61.3684 74.1213L60.1798 75.8218L60.6943 77.8368L62.5606 85.1125C62.1546 87.3159 60.102 94.8702 50.1565 100.612C41.7492 105.466 34.3549 103.91 30.6964 102.547C28.9117 101.885 26.9392 102.046 25.2946 102.996C23.2921 104.152 22.0815 106.305 22.1247 108.615L22.3682 120.482L22.39 121.424L22.7856 122.277L34.435 147.622L34.5215 147.81L34.6249 147.989L35.3806 149.298L36.0092 154.805L36.1693 156.219L37.1041 157.283L45.6999 167.043C47.6071 169.313 50.6457 168.737 51.6615 168.545C53.9644 168.103 57.3065 166.942 61.8883 164.983C75.5515 159.13 98.3159 147.017 129.556 128.98C161.077 110.782 182.499 95.3106 193.236 82.9812C201.677 73.2898 201.285 67.9599 200.301 65.649L200.193 65.3979L200.055 65.1574L195.11 56.5935L194.81 56.0732L194.388 55.6529C194.247 55.511 192.97 54.2564 191.288 53.1768C189.404 51.9674 187.758 51.4556 186.358 51.3545L186.101 51.0399L184.899 51.3986C184.144 51.4989 183.494 51.7173 182.931 51.9826L141.546 64.2939C140.863 64.196 139.844 64.0459 138.554 63.8658L138.562 63.8537L134.863 63.3494L133.546 63.1622L133.544 63.171L132.476 63.0268C131.901 62.9484 131.312 62.8709 130.705 62.7887L130.713 62.7767L127.105 62.3016L125.781 62.1265L125.779 62.1353L124.825 62.0073C124.203 61.926 123.573 61.8423 122.929 61.7594L122.937 61.7474L119.432 61.3095L118.015 61.1284L118.013 61.1372L117.088 61.0219C116.444 60.9391 115.794 60.8595 115.138 60.7831L115.143 60.7654L111.567 60.3463L110.226 60.1808L110.224 60.1897L109.312 60.0824C108.734 60.0128 108.16 59.9489 107.578 59.8826L107.588 59.8617L103.796 59.4556L102.575 59.3176L102.573 59.3264L101.452 59.2056C101.047 59.1634 100.642 59.1211 100.243 59.0756L100.256 59.0459L96.2481 58.6672L95.2582 58.5675L95.2559 58.5763L93.9839 58.453C93.6465 58.424 93.3146 58.3919 92.9828 58.3597L93.0058 58.3091L88.8368 57.9864L87.932 57.9047L87.9296 57.9135L86.6041 57.8137C67.3626 56.3035 63.4951 57.4847 61.3862 58.7023Z" fill="black"/>
<path d="M128.622 69.3467C127.143 69.149 125.573 68.9365 123.928 68.7227L120.986 68.3408L122.777 64.0923C123.068 63.4469 123.513 62.9514 124.083 62.622C124.62 62.312 125.225 62.1715 125.838 62.2128L128.734 62.3978C129.719 62.4631 130.622 62.9935 131.155 63.8267C131.673 64.632 131.791 65.6377 131.478 66.542L130.507 69.6011L128.622 69.3467Z" fill="white"/>
<path d="M125.213 64.5798C125.359 64.4958 125.521 64.4542 125.698 64.4638L128.589 64.652C129.164 64.6927 129.538 65.2751 129.333 65.8112L128.924 67.1061C127.445 66.9084 125.87 66.6991 124.217 66.4829L124.858 64.9715C124.932 64.8021 125.057 64.6702 125.213 64.5798ZM122.953 60.6642C121.968 61.2326 121.201 62.086 120.733 63.124L120.713 63.1657L120.695 63.2131L120.054 64.7245L117.746 70.1962L123.635 70.9655C125.28 71.1793 126.846 71.3863 128.325 71.584L132.091 72.0871L133.237 68.4649L133.626 67.2406C134.153 65.6984 133.948 63.9744 133.061 62.5924C132.144 61.16 130.579 60.2441 128.882 60.1347L125.986 59.9497C124.92 59.8863 123.876 60.1313 122.953 60.6642Z" fill="black"/>
<path d="M120.893 68.3346C119.379 68.1418 117.825 67.9429 116.228 67.7465L113.303 67.3838L114.937 63.3676C115.208 62.7639 115.653 62.2684 116.223 61.939C116.76 61.629 117.365 61.4885 117.978 61.5298L120.875 61.7148C121.859 61.7801 122.762 62.3105 123.296 63.1437C123.813 63.9489 123.931 64.9546 123.614 65.8533L122.765 68.581L120.893 68.3346Z" fill="white"/>
<path d="M117.359 63.8936C117.505 63.8096 117.667 63.768 117.844 63.7777L120.735 63.9659C121.31 64.0066 121.684 64.589 121.479 65.125L121.178 66.0894C119.664 65.8966 118.104 65.7009 116.504 65.4989L116.995 64.283C117.077 64.116 117.203 63.984 117.359 63.8936ZM115.099 59.978C114.114 60.5464 113.346 61.3999 112.879 62.4378L112.846 62.5093L112.816 62.5863L112.324 63.8022L110.109 69.2655L115.957 69.991C117.549 70.1906 119.1 70.384 120.608 70.5799L124.37 71.0631L125.501 67.4417L125.777 66.5512C126.299 65.0122 126.091 63.2971 125.207 61.9207C124.291 60.4883 122.725 59.5723 121.029 59.4629L118.133 59.2779C117.066 59.2002 116.021 59.4452 115.099 59.978Z" fill="black"/>
<path d="M63.6469 62.6178C63.6469 62.6178 63.9401 69.8172 66.8731 74.1351C69.8061 78.4531 141.873 68.9158 141.873 68.9158C141.873 68.9158 70.9187 58.4194 63.6469 62.6178Z" fill="white"/>
<path d="M146.525 68.952L141.957 69.5532C141.776 69.5756 123.718 71.9617 105.536 73.7852C68.3839 77.5141 66.8953 75.3232 66.3364 74.4973C63.3308 70.0795 63.0066 62.9427 62.9973 62.6423L62.9827 62.2555L63.3184 62.0617C66.4564 60.2499 80.663 60.7515 105.553 63.5576C123.995 65.6338 141.784 68.2585 141.962 68.2825L146.525 68.952ZM64.316 63.0146C64.4312 64.5964 65.0108 70.2507 67.4043 73.7763C68.7225 75.6331 93.5298 74.5116 137.114 68.889C130.608 67.9686 118.168 66.2758 105.404 64.8369C75.0283 61.4167 66.5609 62.1362 64.316 63.0146Z" fill="black"/>
<path d="M26.6452 108.526L26.8911 120.384L38.5405 145.729L41.3501 150.595C41.3501 150.595 67.524 141.674 119.545 111.64C171.566 81.6053 186.946 63.0303 187.009 59.2646L184.512 56.2313L141.873 68.9159L68.1366 72.3319L65.0716 76.7118L67.1507 84.8342C67.1507 84.8342 66.4013 96.4542 52.4172 104.528C42.315 110.36 33.3308 108.35 29.1218 106.783C27.9029 106.338 26.6138 107.231 26.6452 108.526Z" fill="#3F3F6B"/>
<path d="M119.868 112.199C68.3895 141.92 41.8211 151.114 41.5603 151.205L41.0556 151.377L37.9811 146.052L26.246 120.533L26.2438 120.4L25.9947 108.536C25.9774 107.718 26.3626 106.951 27.0286 106.477C27.6979 106.009 28.5674 105.887 29.3402 106.179C33.6407 107.776 42.3109 109.617 52.0942 103.969C64.9261 96.5601 66.3812 85.9944 66.494 84.8851L64.3692 76.5803L67.786 71.6989L141.762 68.2715L184.739 55.4884L187.661 59.0373L187.658 59.2777C187.575 63.823 170.905 82.733 119.868 112.199ZM41.6382 149.802C45.5015 148.407 71.7151 138.508 119.222 111.08C169.313 82.1601 185.686 63.4965 186.344 59.4694L184.29 56.971L141.989 69.5571L141.908 69.5591L68.4782 72.9624L65.7652 76.8409L67.787 84.877C67.7772 85.002 67.5668 87.9576 65.6009 91.9416C63.7945 95.5949 60.0958 100.84 52.7345 105.09C42.4981 111 33.4029 109.069 28.8922 107.393C28.5134 107.253 28.1082 107.301 27.7752 107.538C27.459 107.765 27.2779 108.123 27.2868 108.513L27.5305 120.239L39.1233 145.459L41.6382 149.802Z" fill="black"/>
<path d="M39.7644 147.849L40.5013 154.292L49.1558 164.115C49.1558 164.115 52.3408 168.34 127.296 125.064C202.251 81.789 196.139 67.4179 196.139 67.4179L191.195 58.854C191.195 58.854 186.703 54.3692 184.371 56.3873C182.038 58.4053 185.7 71.2074 151.019 91.2303C116.339 111.253 59.7303 148.844 39.7644 147.849Z" fill="white"/>
<path d="M127.619 125.624C57.6085 166.044 49.4709 165.604 48.6408 164.502L39.8841 154.567L39.0347 147.166L39.7952 147.204C55.4019 147.986 94.9229 124.14 126.669 104.976C135.304 99.7669 143.455 94.8444 150.688 90.6686C178.276 74.7407 181.387 63.4651 182.715 58.6483C183.089 57.3063 183.331 56.4208 183.936 55.8925C186.689 53.5049 191.438 58.1913 191.641 58.3874L191.742 58.5232L196.72 67.1574C196.994 67.7747 202.21 82.5583 127.619 125.624ZM49.5404 163.58C50.6108 163.767 59.8322 163.269 126.967 124.508C198.326 83.3094 195.731 68.4293 195.542 67.6882L190.675 59.2586C189.491 58.0998 186.299 55.58 184.791 56.8829C184.477 57.1535 184.249 57.9717 183.967 59.0073C182.598 63.9741 179.387 75.6058 151.34 91.7985C144.119 95.9678 135.967 100.89 127.338 106.096C94.2872 126.036 56.9083 148.593 40.4853 148.529L41.1106 154.03L49.5404 163.58ZM49.5992 163.643L49.6394 163.687C49.6241 163.673 49.6144 163.656 49.5992 163.643Z" fill="black"/>
<path d="M140.203 69.8197L140.616 70.696L141.785 70.1453L141.371 69.2689L140.203 69.8197Z" fill="black"/>
<path d="M150.332 88.2708L149.164 88.8184L148.312 87.006L149.48 86.4584L150.332 88.2708ZM148.624 84.6404L147.456 85.188L146.604 83.3756L147.772 82.828L148.624 84.6404ZM146.914 81.0188L145.746 81.5664L144.893 79.754L146.061 79.2064L146.914 81.0188ZM145.209 77.394L144.041 77.9416L143.188 76.1292L144.356 75.5816L145.209 77.394ZM143.495 73.7668L142.327 74.3144L141.474 72.502L142.642 71.9544L143.495 73.7668Z" fill="black"/>
<path d="M150.011 90.6375L150.425 91.5138L151.593 90.963L151.18 90.0867L150.011 90.6375Z" fill="black"/>
<path d="M144.608 79.2995L143.721 78.3573C144.157 77.9491 144.38 77.7158 144.388 77.7038L145.321 78.5969C145.321 78.5969 145.079 78.8487 144.608 79.2995Z" fill="black"/>
<path d="M95.5885 122.838L94.4259 122.271C94.6863 121.741 94.9889 121.141 95.32 120.487L96.4723 121.075C96.1435 121.72 95.8433 122.311 95.5885 122.838ZM97.3914 119.321L96.2551 118.709C96.557 118.147 96.8781 117.567 97.2207 116.959L98.3467 117.591C98.0065 118.19 97.6854 118.771 97.3914 119.321ZM99.3205 115.88L98.2048 115.227C98.53 114.666 98.8775 114.093 99.2362 113.513L100.342 114.187C99.9852 114.758 99.6489 115.325 99.3205 115.88ZM101.387 112.51L100.297 111.811C100.649 111.258 101.021 110.7 101.398 110.139L102.471 110.862C102.091 111.417 101.736 111.965 101.387 112.51ZM103.587 109.241L102.529 108.494C102.91 107.953 103.306 107.411 103.705 106.875L104.741 107.649C104.345 108.177 103.96 108.712 103.587 109.241ZM105.941 106.084L104.926 105.283C105.34 104.76 105.764 104.24 106.19 103.725L107.183 104.554C106.759 105.06 106.344 105.568 105.941 106.084ZM108.465 103.068L107.505 102.205C107.955 101.707 108.409 101.213 108.869 100.731L109.797 101.628C109.348 102.103 108.902 102.584 108.465 103.068ZM132.131 88.3679L131.633 88.6553L130.993 87.5334L131.485 87.2492C131.899 87.0102 132.298 86.7721 132.692 86.5372L133.361 87.643C132.959 87.89 132.55 88.1257 132.131 88.3679ZM129.88 89.6229C129.305 89.9323 128.713 90.237 128.106 90.5425L127.527 89.385C128.123 89.086 128.706 88.7789 129.273 88.4816L129.88 89.6229ZM135.06 86.5948L134.364 85.5051C134.935 85.138 135.484 84.7839 136.009 84.4282L136.73 85.4962C136.199 85.855 135.642 86.2212 135.06 86.5948ZM111.187 100.251L110.298 99.3175C110.793 98.845 111.295 98.3837 111.787 97.9577L112.633 98.9314C112.149 99.3453 111.666 99.7881 111.187 100.251ZM126.306 91.4174C125.716 91.6988 125.107 91.9755 124.49 92.2499L123.965 91.0689C124.576 90.7978 125.174 90.5276 125.753 90.2526L126.306 91.4174ZM138.375 84.3528L137.626 83.301C138.192 82.8995 138.713 82.5095 139.211 82.1323L139.99 83.1591C139.49 83.5451 138.952 83.9449 138.375 84.3528ZM122.648 93.0376C122.052 93.2846 121.444 93.5236 120.825 93.7691L120.552 93.1807L120.342 92.5712C120.964 92.3313 121.563 92.0898 122.154 91.8461L122.648 93.0376ZM141.572 81.9327L140.759 80.9253C141.33 80.4685 141.832 80.0449 142.263 79.6688L143.109 80.6424C142.664 81.0338 142.151 81.4639 141.572 81.9327ZM114.13 97.6869L113.334 96.6698C113.872 96.2468 114.421 95.8406 114.96 95.4697L115.692 96.5311C115.181 96.8859 114.655 97.2792 114.13 97.6869ZM119.029 94.5599C118.566 94.7902 118.077 95.0424 117.627 95.3096L117.331 95.4807L116.668 94.3717L116.981 94.1908C117.482 93.909 117.964 93.6457 118.456 93.3991L119.029 94.5599Z" fill="black"/>
<path d="M94.3632 125.47L93.1752 124.962C93.1752 124.962 93.3124 124.644 93.5758 124.067L94.7511 124.604C94.498 125.161 94.3632 125.47 94.3632 125.47Z" fill="black"/>
<path d="M66.2479 80.8132L66.3286 82.1025L67.2956 82.042L67.2148 80.7527L66.2479 80.8132Z" fill="black"/>
<path d="M140.549 75.7812C139.938 75.8728 139.298 75.9662 138.624 76.0645L138.446 74.7875C139.114 74.6924 139.749 74.6023 140.351 74.5082L140.549 75.7812ZM136.703 76.3159C136.086 76.3963 135.439 76.4785 134.776 76.556L134.623 75.2716C135.284 75.1885 135.919 75.1128 136.536 75.0324L136.703 76.3159ZM132.851 76.7873C132.221 76.8598 131.583 76.9299 130.925 77.0041L130.781 75.7221C131.434 75.6511 132.078 75.5778 132.702 75.5085L132.851 76.7873ZM129.004 77.2034L127.077 77.4058L126.948 76.1229L128.869 75.9237L129.004 77.2034ZM125.153 77.5994C124.517 77.6608 123.876 77.7253 123.225 77.7875L123.102 76.5014C123.752 76.4392 124.394 76.3747 125.024 76.3166L125.153 77.5994ZM121.3 77.9667C120.664 78.028 120.02 78.087 119.375 78.1459L119.257 76.8566C119.902 76.7976 120.546 76.7387 121.182 76.6774L121.3 77.9667ZM117.447 78.3195L115.518 78.4932L115.409 77.2062L117.332 77.0358L117.447 78.3195ZM113.592 78.658L111.666 78.8228L111.557 77.5358L113.483 77.371L113.592 78.658ZM109.737 78.982L107.808 79.1412L107.704 77.851L109.628 77.695L109.737 78.982ZM105.875 79.2948L103.948 79.4452L103.848 78.1606L105.775 78.0102L105.875 79.2948ZM102.025 79.6012L100.098 79.7515L100.003 78.4637L101.93 78.3133L102.025 79.6012ZM98.1676 79.8963L96.2375 80.0411L96.1429 78.7533L98.073 78.6085L98.1676 79.8963ZM94.3162 80.1883L92.3861 80.3331L92.2914 79.0452L94.2159 78.9037L94.3162 80.1883ZM90.4527 80.4723L88.525 80.6082L88.4303 79.3204L90.3581 79.1844L90.4527 80.4723ZM86.5972 80.7442L84.6694 80.8802L84.5804 79.5891L86.5081 79.4531L86.5972 80.7442ZM82.7361 81.0194L80.8083 81.1553L80.7193 79.8643L82.647 79.7283L82.7361 81.0194ZM78.8773 81.2857L76.9464 81.4161L76.8605 80.1306L78.7915 80.0002L78.8773 81.2857ZM75.0121 81.5408L73.0779 81.6656L72.9921 80.3802L74.9231 80.2498L75.0121 81.5408ZM71.1469 81.796L69.2704 81.9173L69.1269 80.6353L71.0611 80.5105L71.1469 81.796Z" fill="black"/>
<path d="M143.336 75.3129C143.033 75.3687 142.709 75.4286 142.377 75.4862L142.156 74.2117C142.488 74.1542 142.8 74.1007 143.1 74.0393L143.336 75.3129Z" fill="black"/>
<path d="M83.2384 81.3857L81.9482 81.2953C81.9912 80.711 81.9866 80.393 81.9914 80.3754L83.2844 80.3672C83.2876 80.3728 83.286 80.7317 83.2384 81.3857Z" fill="black"/>
<path d="M54.6349 123.638L53.9331 122.552C54.4986 122.188 55.0466 121.819 55.5913 121.445L56.3179 122.51C55.7676 122.887 55.2084 123.262 54.6349 123.638ZM57.9759 121.351L57.2214 120.303C57.7652 119.914 58.297 119.518 58.82 119.119L59.5993 120.146C59.0651 120.551 58.5277 120.951 57.9759 121.351ZM61.1912 118.898L60.384 117.888C60.9084 117.465 61.4185 117.044 61.9197 116.621L62.7573 117.606C62.2425 118.045 61.7269 118.47 61.1912 118.898ZM64.2752 116.282L63.4129 115.318C63.9124 114.866 64.4007 114.42 64.8714 113.969L65.7608 114.903C65.279 115.36 64.7859 115.823 64.2752 116.282ZM67.2094 113.485L66.2896 112.576C66.7586 112.097 67.2219 111.62 67.6676 111.139L68.6145 112.017C68.1576 112.505 67.6863 112.993 67.2094 113.485ZM69.9625 110.515L68.9886 109.668C69.4269 109.161 69.8597 108.658 70.2693 108.153L71.2703 108.97C70.8496 109.481 70.4177 109.999 69.9625 110.515ZM72.5346 107.375L71.5065 106.588C71.9143 106.055 72.3077 105.522 72.6867 104.99L73.7387 105.74C73.3518 106.284 72.9504 106.829 72.5346 107.375ZM74.8857 104.071L73.8098 103.357C74.1782 102.793 74.5355 102.237 74.8727 101.684L75.9781 102.358C75.6241 102.921 75.2621 103.495 74.8857 104.071ZM76.9958 100.607L75.8697 99.9747C76.202 99.3875 76.5142 98.8045 76.8097 98.2312L77.9564 98.8221C77.6618 99.4099 77.3416 100.005 76.9958 100.607ZM78.8656 96.9995L77.6983 96.4503C77.9856 95.8369 78.2561 95.2333 78.5098 94.6393L79.7033 95.1435C79.4328 95.7472 79.1576 96.3685 78.8656 96.9995ZM80.4496 93.2583L79.2387 92.8014C79.481 92.1618 79.7041 91.5407 79.9049 90.9326L81.1333 91.3421C80.9246 91.9623 80.6967 92.601 80.4496 93.2583ZM81.7343 89.399L80.4918 89.0424C80.6788 88.3975 80.8457 87.7566 80.9992 87.131L82.2559 87.4347C82.1034 88.0747 81.926 88.7364 81.7343 89.399ZM82.6917 85.4379L81.424 85.1928C81.5492 84.5313 81.6577 83.8794 81.747 83.2461L83.028 83.4239C82.934 84.0749 82.8216 84.7587 82.6917 85.4379Z" fill="black"/>
<path d="M52.0743 125.236L51.406 124.13C51.6825 123.963 51.959 123.796 52.2266 123.626L52.906 124.726C52.6328 124.898 52.3564 125.066 52.0743 125.236Z" fill="black"/>
<path d="M27.8497 121.024C27.2448 121.023 26.9123 121.028 26.9067 121.031L26.8697 119.74C26.8697 119.74 27.2134 119.728 27.8591 119.736L27.8497 121.024Z" fill="black"/>
<path d="M68.712 135.723C68.3006 135.281 67.8661 134.839 67.4211 134.417L68.3143 133.484C68.7777 133.925 69.2276 134.381 69.6574 134.841L68.712 135.723ZM66.0561 133.176C65.5985 132.784 65.1176 132.391 64.6288 132.009L65.4182 130.986C65.9279 131.378 66.424 131.786 66.8969 132.191L66.0561 133.176ZM63.1394 130.915C62.6347 130.557 62.1253 130.218 61.6079 129.89L62.2976 128.798C62.8391 129.142 63.3727 129.497 63.8774 129.855L63.1394 130.915ZM60.0286 128.937C59.492 128.628 58.9564 128.333 58.4095 128.045L59.0093 126.9C59.5682 127.197 60.1247 127.502 60.6733 127.819L60.0286 128.937ZM56.7538 127.218C56.1967 126.95 55.6315 126.695 55.0672 126.454L55.5835 125.268C56.1598 125.517 56.7426 125.778 57.3119 126.053L56.7538 127.218ZM53.3464 125.747C52.7686 125.521 52.1884 125.304 51.6058 125.096L52.0362 123.878C52.6276 124.089 53.2255 124.31 53.8153 124.544L53.3464 125.747ZM49.8455 124.502C49.2493 124.309 48.6541 124.13 48.0709 123.96L48.4275 122.717C49.0283 122.893 49.6356 123.079 50.2462 123.271L49.8455 124.502ZM46.2733 123.469C45.6678 123.311 45.0598 123.163 44.464 123.022L44.7588 121.763C45.3691 121.903 45.9802 122.057 46.6002 122.214L46.2733 123.469ZM42.6492 122.63C42.031 122.502 41.4192 122.386 40.8194 122.277L41.0469 121.004C41.6555 121.116 42.2761 121.235 42.9087 121.362L42.6492 122.63ZM38.9778 121.968C38.3469 121.87 37.7312 121.785 37.1332 121.705L37.3021 120.422C37.909 120.504 38.5334 120.591 39.1788 120.688L38.9778 121.968ZM35.2791 121.478C34.6323 121.404 34.0095 121.346 33.4221 121.297L33.5357 120.008C34.132 120.059 34.7635 120.12 35.416 120.191L35.2791 121.478ZM31.5676 121.16C30.8792 121.117 30.2582 121.088 29.7069 121.063L29.754 119.775C30.3165 119.794 30.9496 119.831 31.6436 119.87L31.5676 121.16Z" fill="black"/>
<path d="M70.532 137.842C70.3346 137.59 70.1349 137.347 69.9319 137.099L70.924 136.273C71.1359 136.523 71.3421 136.777 71.5459 137.04L70.532 137.842Z" fill="black"/>
<path d="M58.6632 127.451L77.2097 106.92L87.8048 108.336L113.83 77.984L123.149 77.1382L88.5768 116.184L79.5009 114.622L64.0843 130.795C64.0843 130.795 60.8461 128.48 58.6632 127.451Z" fill="#FFC200"/>
<path d="M64.1674 131.649L63.7109 131.323C63.6747 131.299 60.4912 129.028 58.3886 128.034L57.5994 127.662L76.9631 106.235L87.5438 107.651L113.512 77.3693L124.711 76.3557L88.8219 116.893L79.7339 115.323L64.1674 131.649ZM59.7078 127.258C61.3164 128.119 63.1622 129.365 63.9988 129.949L79.2654 113.93L88.327 115.493L121.579 77.9326L114.145 78.6075L88.0602 109.024L77.4619 107.603L59.7078 127.258Z" fill="black"/>
<path d="M83.0177 76.792L81.1769 73.6037L86.4687 61.7776C86.6171 61.4532 86.9462 61.2483 87.3036 61.2731L90.1998 61.4581C90.7752 61.4988 91.1487 62.0812 90.9436 62.6173L86.6103 73.972L83.0177 76.792Z" fill="white"/>
<path d="M82.8297 77.7583L80.4528 73.6413L85.8827 61.5118C86.1349 60.941 86.727 60.5843 87.3488 60.628L90.245 60.813C90.7242 60.8421 91.1532 61.0942 91.4122 61.504C91.6712 61.9138 91.7206 62.3999 91.5512 62.8557L87.1497 74.3766L82.8297 77.7583ZM81.901 73.566L83.2025 75.8202L86.0654 73.5707L90.3393 62.3844C90.3718 62.2986 90.3386 62.2282 90.3193 62.1946C90.2999 62.1611 90.2444 62.1036 90.157 62.0944L87.2608 61.9094C87.1767 61.9058 87.0928 61.9542 87.0571 62.0345L81.901 73.566Z" fill="black"/>
<path d="M90.5491 76.9188L88.7083 73.7304L94.0001 61.9043C94.1484 61.58 94.4776 61.375 94.835 61.3998L97.7312 61.5848C98.3066 61.6255 98.6801 62.2079 98.475 62.744L94.1417 74.0987L90.5491 76.9188Z" fill="white"/>
<path d="M90.3611 77.885L87.9842 73.768L93.414 61.6385C93.6663 61.0678 94.2583 60.711 94.8802 60.7547L97.7764 60.9397C98.2556 60.9688 98.6845 61.2209 98.9435 61.6307C99.2025 62.0405 99.252 62.5266 99.0825 62.9824L94.6811 74.5033L90.3611 77.885ZM89.4323 73.6927L90.7338 75.9469L93.5967 73.6974L97.8707 62.5111C97.9032 62.4253 97.87 62.3549 97.8506 62.3214C97.8313 62.2878 97.7757 62.2304 97.6884 62.2211L94.7922 62.0361C94.708 62.0325 94.6241 62.081 94.5885 62.1612L89.4323 73.6927Z" fill="black"/>
<path d="M98.8762 75.8401L97.0354 72.6517L101.295 62.9132C101.443 62.5888 101.773 62.3839 102.13 62.4087L105.026 62.5937C105.602 62.6344 105.975 63.2168 105.77 63.7529L102.469 73.02L98.8762 75.8401Z" fill="white"/>
<path d="M98.6883 76.8063L96.3146 72.695L100.707 62.6563C100.964 62.0823 101.557 61.7256 102.175 61.7637L105.071 61.9486C105.551 61.9778 105.979 62.2298 106.238 62.6397C106.497 63.0495 106.547 63.5356 106.377 63.9914L103.014 73.4214L98.6883 76.8063ZM97.7595 72.6141L99.0642 74.8739L101.922 72.6276L105.161 63.5377C105.201 63.4398 105.168 63.3695 105.149 63.3359C105.129 63.3023 105.074 63.2449 104.987 63.2357L102.09 63.0507C102.006 63.0471 101.922 63.0955 101.887 63.1758L97.7595 72.6141Z" fill="black"/>
<path d="M107.29 76.2032L105.449 73.0148L109.149 63.5993C109.298 63.275 109.627 63.07 109.984 63.0948L112.88 63.2798C113.456 63.3205 113.829 63.9029 113.624 64.439L110.883 73.3832L107.29 76.2032Z" fill="white"/>
<path d="M107.102 77.1695L104.735 73.0693L108.551 63.3632C108.819 62.7684 109.411 62.4117 110.029 62.4498L112.926 62.6347C113.405 62.6639 113.834 62.9159 114.093 63.3257C114.352 63.7356 114.401 64.2217 114.232 64.6775L111.441 73.7693L107.102 77.1695ZM106.163 72.9604L107.475 75.2314L110.324 72.9972L113.008 64.2503C113.056 64.1259 113.022 64.0556 113.003 64.022C112.984 63.9884 112.928 63.931 112.841 63.9218L109.945 63.7368C109.861 63.7332 109.777 63.7816 109.741 63.8619L106.163 72.9604Z" fill="black"/>
<path d="M115.381 76.007L113.54 72.8186L117.004 64.2854C117.152 63.9611 117.481 63.7561 117.839 63.781L120.735 63.9659C121.31 64.0066 121.684 64.589 121.479 65.1251L118.973 73.187L115.381 76.007Z" fill="white"/>
<path d="M115.193 76.9732L112.822 72.8674L116.407 64.0404C116.67 63.4488 117.262 63.0921 117.884 63.1358L120.78 63.3208C121.259 63.3499 121.688 63.6019 121.947 64.0118C122.206 64.4216 122.256 64.9077 122.086 65.3635L119.529 73.5818L115.193 76.9732ZM114.257 72.7697L115.569 75.0407L118.418 72.8065L120.866 64.9419C120.913 64.8175 120.88 64.7472 120.861 64.7136C120.841 64.68 120.786 64.6226 120.698 64.6134L117.802 64.4284C117.718 64.4248 117.634 64.4732 117.598 64.5535L114.257 72.7697Z" fill="black"/>
<path d="M123.471 75.8107L121.631 72.6223L124.858 64.9714C125.006 64.6471 125.335 64.4421 125.693 64.4669L128.589 64.6519C129.164 64.6926 129.538 65.275 129.333 65.8111L127.064 72.9907L123.471 75.8107Z" fill="white"/>
<path d="M123.283 76.7769L120.91 72.6656L124.264 64.7177C124.524 64.1349 125.116 63.7781 125.735 63.8162L128.631 64.0012C129.11 64.0303 129.539 64.2824 129.798 64.6922C130.057 65.1021 130.107 65.5881 129.937 66.044L127.617 73.38L123.283 76.7769ZM122.351 72.5791L123.659 74.8445L126.509 72.6102L128.722 65.6191C128.77 65.4948 128.737 65.4244 128.712 65.3941C128.687 65.3637 128.637 65.3031 128.549 65.2938L125.653 65.1089C125.569 65.1052 125.485 65.1537 125.45 65.2339L122.351 72.5791Z" fill="black"/>
<path d="M131.798 74.7321L129.958 71.5437L132.712 65.6574C132.861 65.3331 133.19 65.1282 133.547 65.153L136.443 65.338C137.019 65.3787 137.392 65.9611 137.187 66.4971L135.391 71.9121L131.798 74.7321Z" fill="white"/>
<path d="M131.611 75.6984L129.23 71.5758L132.129 65.3829C132.378 64.8209 132.965 64.4674 133.592 64.5079L136.489 64.6929C136.968 64.722 137.397 64.9741 137.656 65.3839C137.915 65.7937 137.964 66.2798 137.795 66.7356L135.947 72.307L131.611 75.6984ZM130.685 71.5117L131.983 73.7603L134.838 71.5228L136.576 66.2908C136.615 66.1784 136.588 66.1049 136.563 66.0745C136.538 66.0442 136.488 65.9835 136.401 65.9743L133.504 65.7893C133.42 65.7857 133.336 65.8341 133.301 65.9144L130.685 71.5117Z" fill="black"/>
</g>
<defs>
<filter id="filter0_d_60_1831" x="22.1236" y="51.0399" width="178.684" height="126.713" filterUnits="userSpaceOnUse" color-interpolation-filters="sRGB">
<feFlood flood-opacity="0" result="BackgroundImageFix"/>
<feColorMatrix in="SourceAlpha" type="matrix" values="0 0 0 0 0 0 0 0 0 0 0 0 0 0 0 0 0 0 127 0" result="hardAlpha"/>
<feOffset dy="9"/>
<feComposite in2="hardAlpha" operator="out"/>
<feColorMatrix type="matrix" values="0 0 0 0 0 0 0 0 0 0 0 0 0 0 0 0 0 0 0.15 0"/>
<feBlend mode="normal" in2="BackgroundImageFix" result="effect1_dropShadow_60_1831"/>
<feBlend mode="normal" in="SourceGraphic" in2="effect1_dropShadow_60_1831" result="shape"/>
</filter>
</defs>
</svg>
