<svg width="180" height="115" viewBox="0 0 180 115" fill="none" xmlns="http://www.w3.org/2000/svg">
<g filter="url(#filter0_d_60_1833)">
<path d="M78.1885 20.058L85.3493 28.8499L89.0778 32.6933L91.8991 35.6011L98.0249 40.4623L98.8812 39.3383C99.1523 38.9774 99.6055 38.845 100.01 38.9534C100.163 38.9944 100.307 39.0699 100.436 39.1786L100.766 39.4678C101.199 39.843 101.258 40.4931 100.899 40.9417L100.021 42.0493L102.712 44.1819L103.659 42.9343C103.931 42.5734 104.384 42.4411 104.788 42.5494C104.941 42.5904 105.085 42.6659 105.214 42.7746L105.544 43.0639C105.977 43.4391 106.036 44.0892 105.678 44.5378L104.703 45.7676L107.394 47.9002L108.433 46.529C108.704 46.1681 109.157 46.0358 109.561 46.1441C109.714 46.1851 109.858 46.2606 109.987 46.3693L110.317 46.6586C110.75 47.0338 110.809 47.6839 110.451 48.1325L109.381 49.4796L112.076 51.6185L113.211 50.125C113.482 49.7641 113.935 49.6318 114.34 49.7402C114.492 49.7811 114.636 49.8566 114.766 49.9654L115.095 50.2546C115.529 50.6298 115.587 51.2799 115.229 51.7285L114.063 53.1979L121.196 58.8577L124.346 61.3089L142.965 72.3252L157.945 78.8924L162.987 82.4483L164.528 86.5622L162.322 94.7951L157.922 96.9521L145.051 98.5789L144.875 98.7432L143.99 98.7122L110.829 97.551L15.3953 70.9224L9.99404 67.4026L8.17313 58.4132L15.8203 45.6586L19.1861 37.0438L29.2253 18.6967L23.949 17.0979C22.6241 16.6953 21.8569 15.316 22.2151 13.9792C22.5879 12.5881 24.0145 11.802 25.3563 12.1615C25.4895 12.1972 25.62 12.2427 25.7515 12.3044L34.7757 16.372L39.541 20.2923L43.6713 32.5018L53.1405 36.6252L61.8261 35.7803L76.2453 29.3818L72.8957 22.0922L73.4904 19.8724L78.1885 20.058ZM79.947 16.5533L78.3428 16.483L73.6388 16.28L70.7744 16.1575L70.0315 18.9297L69.4368 21.1495L69.1037 22.3926L69.6414 23.5624L71.4782 27.5598L60.8981 32.2589L53.7114 32.9556L46.543 29.8347L42.9202 19.1253L42.592 18.1597L41.8039 17.5097L37.0387 13.5893L36.6709 13.2846L36.2369 13.089L27.2128 9.02145C26.9116 8.88259 26.5926 8.77069 26.272 8.68478C24.7033 8.26446 23.0596 8.47961 21.6438 9.28453C20.2092 10.1003 19.1809 11.432 18.7526 13.0303C17.8895 16.2514 19.7123 19.5314 22.9008 20.4968L23.9669 20.8194L16.0403 35.3073L15.9279 35.5098L15.8437 35.7252L12.5955 44.0596L5.10252 56.5541L4.3925 57.7438L4.66819 59.1024L6.4891 68.0919L6.78768 69.5624L8.04367 70.38L13.445 73.8998L13.9045 74.1974L14.4359 74.3451L109.869 100.974L110.277 101.088L110.702 101.102L143.863 102.263L144.748 102.294L146.235 102.349L146.65 101.963L158.367 100.481L158.958 100.407L159.492 100.149L163.893 97.9916L165.353 97.2778L165.773 95.7092L167.98 87.4713L168.277 86.3663L167.877 85.2918L166.336 81.1779L165.952 80.1445L165.048 79.5111L160.006 75.9553L159.712 75.7496L159.381 75.6029L144.601 69.1207L126.36 58.3326L123.402 56.0332L118.832 52.4085C119.353 50.7028 118.861 48.7893 117.444 47.5477L117.114 47.2585C116.583 46.7937 115.945 46.4534 115.264 46.271C114.864 46.164 114.46 46.1138 114.064 46.1133C113.821 45.3028 113.352 44.5479 112.665 43.9517L112.336 43.6625C111.805 43.1977 111.166 42.8574 110.486 42.675C110.086 42.568 109.682 42.5178 109.285 42.5173C109.043 41.7068 108.573 40.9519 107.887 40.3557L107.558 40.0665C107.027 39.6016 106.388 39.2614 105.707 39.079C105.308 38.9719 104.904 38.9218 104.507 38.9213C104.264 38.1108 103.795 37.3559 103.109 36.7597L102.78 36.4704C102.248 36.0056 101.61 35.6654 100.929 35.483C99.8687 35.1988 98.7732 35.3018 97.8233 35.7293L94.3001 32.9348L91.6408 30.192L88.0208 26.4569L80.9568 17.7967L79.947 16.5533Z" fill="black"/>
<path d="M85.3493 28.8499L78.1884 20.058L73.4845 19.855L72.8897 22.0748L78.566 34.4341L85.3493 28.8499Z" fill="#FFC200"/>
<path d="M78.3801 35.2461L72.3502 22.1153L73.0983 19.3233L78.4397 19.5543L86.0667 28.9152L78.3801 35.2461ZM73.4319 22.0244L78.7545 33.6123L84.6345 28.7747L77.9335 20.5554L73.8671 20.3805L73.427 22.0231L73.4319 22.0244Z" fill="black"/>
<path d="M124.345 61.2928L93.6585 37.4208L85.3493 28.8499L77.4213 28.8404L61.8202 35.7628L53.1345 36.6077L43.6653 32.4844L39.535 20.2749L34.7697 16.3545L29.2256 18.6756L19.185 37.0277L15.8193 45.6425L28.3709 57.9936L82.0485 76.6061L136.933 79.1522L135.622 67.9626L124.345 61.2928Z" fill="#2F3D25"/>
<path d="M81.9509 77.1086L81.8832 77.0852L28.0934 58.4374L15.2201 45.7674L18.7383 36.7811L28.8619 18.2768L34.854 15.7638L39.9699 19.9738L44.073 32.1072L53.2151 36.0901L61.6885 35.2676L77.3133 28.3356L85.5634 28.3468L94.0044 37.0376L124.634 60.8678L136.102 67.6523L137.514 79.6884L81.9509 77.1086ZM28.6448 57.5436L82.1488 76.0937L136.36 78.6074L135.144 68.2679L124.028 61.6889L93.291 37.7664L85.1253 29.3503L77.5194 29.3425L61.9505 36.263L53.0527 37.1304L43.2563 32.8665L39.0952 20.5747L34.6806 16.9439L29.583 19.0781L19.646 37.2411L16.4149 45.5113L28.6448 57.5436Z" fill="black"/>
<path d="M66.0379 59.2678L111.526 63.3566L123.972 66.6914L127.347 65.4809L124.345 61.2929L142.964 72.3091L157.939 78.8751L162.986 82.4323L164.527 86.5462L150.832 95.0367L110.534 90.6202L77.6297 80.6669L66.0379 59.2678Z" fill="#6D6D6D"/>
<path d="M110.431 91.1214L110.387 91.1095L77.2768 81.0957L65.135 58.6715L111.655 62.857L123.948 66.1508L126.534 65.2207L122.512 59.612L143.194 71.8472L158.232 78.4513L163.403 82.0998L165.148 86.7548L150.946 95.5589L150.772 95.5386L110.431 91.1214ZM77.9763 80.2416L110.636 90.1189L150.71 94.5069L163.898 86.3299L162.561 82.7571L157.687 79.3205L142.699 72.7456L126.17 62.9662L128.153 65.7286L123.994 67.2207L111.43 63.8542L66.9373 59.8576L77.9763 80.2416Z" fill="black"/>
<path d="M15.8193 45.6425L8.17212 58.3971L9.99302 67.3865L15.3943 70.9063L110.828 97.535L56.4697 51.0943L30.3536 50.5943L15.8193 45.6425Z" fill="#1C1C1C"/>
<path d="M112.915 98.6441L15.1122 71.3277L9.5308 67.6909L7.62748 58.2987L15.5895 45.0204L30.4391 50.0779L56.6591 50.5847L112.915 98.6441ZM15.6054 70.4342L108.737 96.4196L56.2802 51.604L30.2658 51.0995L30.1882 51.0734L16.0469 46.2533L8.71448 58.4842L10.453 67.0709L15.6054 70.4342Z" fill="black"/>
<path d="M87.6354 77.7171L111.63 86.6472L151.513 92.4962L144.874 98.727L110.828 97.5349L82.8165 83.685L87.6354 77.7171Z" fill="#2F3D25"/>
<path d="M110.698 98.0394L110.599 97.9919L82.0195 83.8574L87.4745 77.1136L111.759 86.1477L152.633 92.1459L145.068 99.2444L110.698 98.0394ZM83.6147 83.5076L110.954 97.0242L144.676 98.2034L150.389 92.8452L111.498 87.1405L111.45 87.1224L87.7998 78.3269L83.6147 83.5076Z" fill="black"/>
<path d="M164.527 86.546L152.108 90.2764L143.99 98.6911L157.916 96.9347L162.321 94.779L164.527 86.546Z" fill="#2F3D25"/>
<path d="M142.616 99.3803L151.833 89.8221L165.259 85.7903L162.755 95.1331L158.07 97.4253L157.988 97.4351L142.616 99.3803ZM152.384 90.7258L145.364 98.0019L157.77 96.4355L161.889 94.4199L163.798 87.2969L152.384 90.7258Z" fill="black"/>
<path d="M56.5454 51.601L56.3989 50.589L82.8116 46.7855L85.4982 44.0794L88.5845 32.5612L89.5711 32.8255L86.4147 44.6052L83.2996 47.7464L83.1295 47.7695L56.5454 51.601Z" fill="black"/>
<path d="M86.2599 43.9284L85.6505 44.748L111.22 63.758L111.83 62.9383L86.2599 43.9284Z" fill="black"/>
<path d="M114.07 61.9921L89.3587 43.0889L91.6031 34.7129L122.224 59.0063L114.07 61.9921ZM90.5274 42.6936L114.252 60.8406L120.166 58.6768L92.1915 36.4831L90.5274 42.6936Z" fill="black"/>
<path d="M12.6306 50.9527L59.8363 67.3182L26.8108 69.7357L17.7994 67.8498L9.08813 62.9303L8.17213 58.3971L12.6306 50.9527Z" fill="#FFC200"/>
<path d="M17.6179 68.3299L17.5492 68.2904L8.64034 63.2597L7.63735 58.3014L12.4155 50.3347L62.3491 67.6479L26.7144 70.2333L17.6179 68.3299ZM9.54577 62.6036L17.9823 67.3649L26.8479 69.2223L57.3332 66.9912L12.8604 51.5748L8.71316 58.4892L9.54577 62.6036Z" fill="black"/>
<path d="M46.4299 68.2993L66.2737 80.3098L65.0788 84.7691L15.3943 70.9064L9.99304 67.3866L9.08813 62.9304L17.7994 67.8499L26.8108 69.7358L46.4299 68.2993Z" fill="#1C1C1C"/>
<path d="M65.4386 85.3995L15.1159 71.334L9.53441 67.6972L8.3702 61.9396L17.9823 67.3649L26.8479 69.2223L46.5574 67.7836L66.871 80.0733L65.4435 85.4008L65.4386 85.3995ZM15.6054 70.4342L64.719 84.1387L65.6812 80.5476L46.3059 68.8212L26.7786 70.2505L17.6166 68.3349L17.5479 68.2953L9.8146 63.9286L10.4516 67.0759L15.6054 70.4342Z" fill="black"/>
<path d="M82.9247 83.184L66.3812 79.8104L66.1771 80.8112L82.7206 84.1848L82.9247 83.184Z" fill="black"/>
<path d="M98.8776 39.332L93.0793 46.962C92.712 47.4451 92.8217 48.1407 93.3213 48.486L93.5122 48.6218C93.975 48.9467 94.6133 48.8534 94.9652 48.4084L100.897 40.9306C101.255 40.482 101.191 39.8355 100.763 39.4567L100.434 39.1674C99.9697 38.7682 99.2525 38.8403 98.8776 39.332Z" fill="#FFC200"/>
<path d="M93.7131 49.273C93.5404 49.2268 93.3708 49.1496 93.2189 49.0455L93.028 48.9097C92.6717 48.6609 92.4389 48.2866 92.368 47.8605C92.2971 47.4344 92.4072 47.0039 92.6695 46.6565L98.4677 39.0266C98.7299 38.6792 99.1339 38.4543 99.5681 38.4121C100.002 38.3698 100.441 38.5085 100.767 38.7915L101.097 39.0807C101.735 39.6378 101.823 40.5919 101.297 41.2544L95.3648 48.7322C94.9599 49.237 94.305 49.4316 93.7131 49.273ZM99.2861 39.6424L93.4878 47.2723C93.3966 47.3959 93.3569 47.5439 93.3791 47.6979C93.4013 47.8519 93.4834 47.9796 93.6119 48.0722L93.8028 48.208C94.0477 48.3793 94.3781 48.3304 94.5616 48.0993L100.493 40.6215C100.678 40.3855 100.647 40.0493 100.425 39.8523L100.095 39.5631C99.9791 39.4633 99.8288 39.4124 99.6712 39.4284C99.5199 39.4407 99.3773 39.5188 99.2861 39.6424Z" fill="black"/>
<path d="M103.656 42.9281L97.8575 50.558C97.4901 51.0412 97.5998 51.7367 98.0994 52.0821L98.2904 52.2178C98.7532 52.5427 99.3915 52.4494 99.7433 52.0044L105.675 44.5266C106.033 44.078 105.969 43.4315 105.541 43.0527L105.212 42.7635C104.744 42.358 104.032 42.4315 103.656 42.9281Z" fill="#FFC200"/>
<path d="M98.4912 52.8691C98.3186 52.8228 98.1539 52.747 97.9971 52.6415L97.8061 52.5058C97.4498 52.257 97.217 51.8827 97.1475 51.4516C97.0779 51.0206 97.1867 50.5951 97.4489 50.2477L103.247 42.6177C103.509 42.2703 103.913 42.0455 104.343 42.0019C104.778 41.9547 105.216 42.0984 105.542 42.3813L105.871 42.6705C106.51 43.2276 106.598 44.1817 106.071 44.8442L100.139 52.322C99.7394 52.8282 99.0832 53.0277 98.4912 52.8691ZM104.654 43.0316C104.59 43.0144 104.523 43.0071 104.452 43.0146C104.294 43.0305 104.157 43.11 104.066 43.2335L98.2673 50.8635C98.176 50.9871 98.1364 51.135 98.1586 51.289C98.1808 51.443 98.2629 51.5707 98.3914 51.6633L98.5823 51.7991C98.8272 51.9705 99.1575 51.9215 99.3411 51.6905L105.274 44.2077C105.459 43.9718 105.428 43.6355 105.205 43.4385L104.875 43.1542C104.811 43.095 104.733 43.0528 104.654 43.0316Z" fill="black"/>
<path d="M108.43 46.5178L102.636 54.1539C102.268 54.6371 102.378 55.3326 102.878 55.678L103.068 55.8138C103.531 56.1387 104.17 56.0453 104.521 55.6003L110.453 48.1226C110.811 47.6739 110.747 47.0275 110.32 46.6486L109.99 46.3594C109.522 45.9539 108.805 46.0261 108.43 46.5178Z" fill="#FFC200"/>
<path d="M103.266 56.4588C103.093 56.4125 102.928 56.3366 102.772 56.2312L102.581 56.0954C102.224 55.8466 101.992 55.4723 101.922 55.0413C101.857 54.6116 101.961 54.1847 102.223 53.8373L108.022 46.2074C108.284 45.86 108.688 45.6351 109.117 45.5916C109.551 45.5493 109.99 45.688 110.316 45.971L110.647 46.2553C111.286 46.8123 111.374 47.7664 110.847 48.429L104.915 55.9068C104.518 56.4241 103.863 56.6187 103.266 56.4588ZM109.432 46.6275C109.368 46.6103 109.301 46.603 109.23 46.6105C109.073 46.6264 108.935 46.7059 108.844 46.8295L103.039 54.463C102.948 54.5866 102.908 54.7346 102.93 54.8885C102.953 55.0425 103.04 55.1716 103.163 55.2629L103.354 55.3986C103.594 55.5686 103.929 55.521 104.114 55.285L110.046 47.8073C110.231 47.5713 110.2 47.235 109.977 47.0381L109.646 46.7538C109.584 46.6895 109.511 46.6487 109.432 46.6275Z" fill="black"/>
<path d="M113.208 50.1139L107.41 57.7438C107.043 58.227 107.152 58.9225 107.652 59.2679L107.843 59.4036C108.306 59.7285 108.944 59.6352 109.296 59.1902L115.228 51.7124C115.586 51.2638 115.521 50.6173 115.094 50.2385L114.765 49.9493C114.296 49.5487 113.583 49.6222 113.208 50.1139Z" fill="#FFC200"/>
<path d="M108.044 60.0548C107.871 60.0086 107.702 59.9314 107.55 59.8273L107.359 59.6915C107.003 59.4427 106.77 59.0684 106.704 58.6436C106.634 58.2126 106.743 57.787 107.005 57.4397L112.805 49.8048C113.067 49.4574 113.471 49.2325 113.905 49.1903C114.34 49.148 114.778 49.2867 115.104 49.5697L115.434 49.8589C116.072 50.416 116.16 51.3701 115.634 52.0326L109.702 59.5104C109.291 60.0188 108.636 60.2134 108.044 60.0548ZM113.612 50.4229L107.814 58.0528C107.722 58.1764 107.683 58.3244 107.705 58.4784C107.729 58.6274 107.814 58.7614 107.939 58.8477L108.13 58.9835C108.37 59.1535 108.705 59.1059 108.889 58.8749L114.821 51.3971C115.006 51.1611 114.974 50.8249 114.752 50.6279L114.422 50.3387C114.306 50.2388 114.151 50.1867 113.998 50.2039C113.846 50.2212 113.709 50.2957 113.612 50.4229Z" fill="black"/>
<path d="M34.7698 16.3545L25.7456 12.2869C24.3022 11.6358 22.6189 12.4325 22.2092 13.9617C21.851 15.2985 22.6181 16.6778 23.9431 17.0804L29.2193 18.6792L34.7698 16.3545Z" fill="#FFC200"/>
<path d="M29.2499 19.2161L23.7974 17.5648C22.1989 17.0783 21.285 15.4377 21.7172 13.8246C21.9512 12.9515 22.5517 12.2295 23.3697 11.8406C24.1876 11.4518 25.1255 11.444 25.9517 11.8135L36.0405 16.3672L29.2499 19.2161ZM25.2244 12.6337C24.7558 12.5081 24.2583 12.5493 23.815 12.7636C23.2692 13.0245 22.866 13.5033 22.7087 14.0903C22.4193 15.1706 23.0302 16.2648 24.0963 16.5875L29.1963 18.1338L33.4904 16.3342L25.5371 12.7492C25.4339 12.7004 25.328 12.6614 25.2244 12.6337Z" fill="black"/>
</g>
<defs>
<filter id="filter0_d_60_1833" x="4.39252" y="8.47461" width="163.884" height="102.874" filterUnits="userSpaceOnUse" color-interpolation-filters="sRGB">
<feFlood flood-opacity="0" result="BackgroundImageFix"/>
<feColorMatrix in="SourceAlpha" type="matrix" values="0 0 0 0 0 0 0 0 0 0 0 0 0 0 0 0 0 0 127 0" result="hardAlpha"/>
<feOffset dy="9"/>
<feComposite in2="hardAlpha" operator="out"/>
<feColorMatrix type="matrix" values="0 0 0 0 0 0 0 0 0 0 0 0 0 0 0 0 0 0 0.15 0"/>
<feBlend mode="normal" in2="BackgroundImageFix" result="effect1_dropShadow_60_1833"/>
<feBlend mode="normal" in="SourceGraphic" in2="effect1_dropShadow_60_1833" result="shape"/>
</filter>
</defs>
</svg>
