<svg width="62" height="71" viewBox="0 0 62 71" fill="none" xmlns="http://www.w3.org/2000/svg">
<g filter="url(#filter0_d_60_1830)">
<path d="M31 60.4314C47.2545 60.4314 60.4314 47.2545 60.4314 31C60.4314 14.7455 47.2545 1.5686 31 1.5686C14.7455 1.5686 1.5686 14.7455 1.5686 31C1.5686 47.2545 14.7455 60.4314 31 60.4314Z" fill="#72B523"/>
<path d="M31 3.1372C46.3902 3.1372 58.8628 15.6098 58.8628 31C58.8628 46.3902 46.3902 58.8628 31 58.8628C15.6098 58.8628 3.1372 46.3902 3.1372 31C3.1372 15.6098 15.6098 3.1372 31 3.1372ZM31 0C13.9068 0 0 13.9068 0 31C0 48.0933 13.9068 62 31 62C48.0933 62 62 48.0933 62 31C62 13.9068 48.0933 0 31 0Z" fill="black"/>
<path d="M57.6796 38.4575C57.2763 33.9803 55.3536 27.8 51.1632 23.8874C43.495 16.7212 36.7232 16.9722 30.7535 17.1873C27.8001 17.2948 25.008 17.3979 22.543 16.5061C14.9196 13.7543 16.3224 6.0547 16.3358 5.97852L18.0972 6.31913C18.0479 6.57458 16.9902 12.598 23.1525 14.8209C25.2948 15.5918 27.7956 15.5022 30.6908 15.3991C36.7007 15.1795 44.1807 14.9106 52.3912 22.5833C56.9491 26.8409 59.0331 33.4962 59.4678 38.3006L57.6796 38.4575Z" fill="black"/>
<path d="M47.3627 51.6025C43.1679 51.6025 38.9416 50.6613 35.0649 47.2014C26.0163 39.1388 23.9144 33.1289 22.5296 29.1491C21.436 26.0209 20.8355 24.2954 17.7207 23.3094C9.58191 20.7324 3.07894 30.6101 3.0162 30.7087L1.51035 29.7362C1.80614 29.2791 8.82898 18.6126 18.263 21.6019C22.2338 22.8613 23.0674 25.25 24.2237 28.5575C25.6309 32.5866 27.5581 38.108 36.2571 45.8614C41.0077 50.0966 46.4754 50.1235 51.6741 49.523L51.8803 51.3022C50.3879 51.477 48.8776 51.6025 47.3627 51.6025Z" fill="black"/>
</g>
<defs>
<filter id="filter0_d_60_1830" x="0" y="0" width="62" height="71" filterUnits="userSpaceOnUse" color-interpolation-filters="sRGB">
<feFlood flood-opacity="0" result="BackgroundImageFix"/>
<feColorMatrix in="SourceAlpha" type="matrix" values="0 0 0 0 0 0 0 0 0 0 0 0 0 0 0 0 0 0 127 0" result="hardAlpha"/>
<feOffset dy="9"/>
<feComposite in2="hardAlpha" operator="out"/>
<feColorMatrix type="matrix" values="0 0 0 0 0 0 0 0 0 0 0 0 0 0 0 0 0 0 0.15 0"/>
<feBlend mode="normal" in2="BackgroundImageFix" result="effect1_dropShadow_60_1830"/>
<feBlend mode="normal" in="SourceGraphic" in2="effect1_dropShadow_60_1830" result="shape"/>
</filter>
</defs>
</svg>
